<?xml version="1.0" encoding="utf-8"?>
<svg xmlns="http://www.w3.org/2000/svg" xmlns:xlink="http://www.w3.org/1999/xlink" width="600" height="400" viewBox="0 0 2400 1600">
<defs>
  <clipPath id="clip790">
    <rect x="0" y="0" width="2400" height="1600"/>
  </clipPath>
</defs>
<path clip-path="url(#clip790)" d="M0 1600 L2400 1600 L2400 8.88178e-14 L0 8.88178e-14  Z" fill="#ffffff" fill-rule="evenodd" fill-opacity="1"/>
<defs>
  <clipPath id="clip791">
    <rect x="480" y="0" width="1681" height="1600"/>
  </clipPath>
</defs>
<path clip-path="url(#clip790)" d="M219.866 1423.18 L2352.76 1423.18 L2352.76 123.472 L219.866 123.472  Z" fill="#ffffff" fill-rule="evenodd" fill-opacity="1"/>
<defs>
  <clipPath id="clip792">
    <rect x="219" y="123" width="2134" height="1301"/>
  </clipPath>
</defs>
<polyline clip-path="url(#clip792)" style="stroke:#000000; stroke-linecap:round; stroke-linejoin:round; stroke-width:2; stroke-opacity:0.1; fill:none" points="280.231,1423.18 280.231,123.472 "/>
<polyline clip-path="url(#clip792)" style="stroke:#000000; stroke-linecap:round; stroke-linejoin:round; stroke-width:2; stroke-opacity:0.1; fill:none" points="531.751,1423.18 531.751,123.472 "/>
<polyline clip-path="url(#clip792)" style="stroke:#000000; stroke-linecap:round; stroke-linejoin:round; stroke-width:2; stroke-opacity:0.1; fill:none" points="783.271,1423.18 783.271,123.472 "/>
<polyline clip-path="url(#clip792)" style="stroke:#000000; stroke-linecap:round; stroke-linejoin:round; stroke-width:2; stroke-opacity:0.1; fill:none" points="1034.79,1423.18 1034.79,123.472 "/>
<polyline clip-path="url(#clip792)" style="stroke:#000000; stroke-linecap:round; stroke-linejoin:round; stroke-width:2; stroke-opacity:0.1; fill:none" points="1286.31,1423.18 1286.31,123.472 "/>
<polyline clip-path="url(#clip792)" style="stroke:#000000; stroke-linecap:round; stroke-linejoin:round; stroke-width:2; stroke-opacity:0.1; fill:none" points="1537.83,1423.18 1537.83,123.472 "/>
<polyline clip-path="url(#clip792)" style="stroke:#000000; stroke-linecap:round; stroke-linejoin:round; stroke-width:2; stroke-opacity:0.1; fill:none" points="1789.35,1423.18 1789.35,123.472 "/>
<polyline clip-path="url(#clip792)" style="stroke:#000000; stroke-linecap:round; stroke-linejoin:round; stroke-width:2; stroke-opacity:0.1; fill:none" points="2040.87,1423.18 2040.87,123.472 "/>
<polyline clip-path="url(#clip792)" style="stroke:#000000; stroke-linecap:round; stroke-linejoin:round; stroke-width:2; stroke-opacity:0.1; fill:none" points="2292.39,1423.18 2292.39,123.472 "/>
<polyline clip-path="url(#clip792)" style="stroke:#000000; stroke-linecap:round; stroke-linejoin:round; stroke-width:2; stroke-opacity:0.1; fill:none" points="219.866,1266.6 2352.76,1266.6 "/>
<polyline clip-path="url(#clip792)" style="stroke:#000000; stroke-linecap:round; stroke-linejoin:round; stroke-width:2; stroke-opacity:0.1; fill:none" points="219.866,897.816 2352.76,897.816 "/>
<polyline clip-path="url(#clip792)" style="stroke:#000000; stroke-linecap:round; stroke-linejoin:round; stroke-width:2; stroke-opacity:0.1; fill:none" points="219.866,529.036 2352.76,529.036 "/>
<polyline clip-path="url(#clip792)" style="stroke:#000000; stroke-linecap:round; stroke-linejoin:round; stroke-width:2; stroke-opacity:0.1; fill:none" points="219.866,160.256 2352.76,160.256 "/>
<polyline clip-path="url(#clip790)" style="stroke:#000000; stroke-linecap:round; stroke-linejoin:round; stroke-width:4; stroke-opacity:1; fill:none" points="219.866,1423.18 2352.76,1423.18 "/>
<polyline clip-path="url(#clip790)" style="stroke:#000000; stroke-linecap:round; stroke-linejoin:round; stroke-width:4; stroke-opacity:1; fill:none" points="280.231,1423.18 280.231,1404.28 "/>
<polyline clip-path="url(#clip790)" style="stroke:#000000; stroke-linecap:round; stroke-linejoin:round; stroke-width:4; stroke-opacity:1; fill:none" points="531.751,1423.18 531.751,1404.28 "/>
<polyline clip-path="url(#clip790)" style="stroke:#000000; stroke-linecap:round; stroke-linejoin:round; stroke-width:4; stroke-opacity:1; fill:none" points="783.271,1423.18 783.271,1404.28 "/>
<polyline clip-path="url(#clip790)" style="stroke:#000000; stroke-linecap:round; stroke-linejoin:round; stroke-width:4; stroke-opacity:1; fill:none" points="1034.79,1423.18 1034.79,1404.28 "/>
<polyline clip-path="url(#clip790)" style="stroke:#000000; stroke-linecap:round; stroke-linejoin:round; stroke-width:4; stroke-opacity:1; fill:none" points="1286.31,1423.18 1286.31,1404.28 "/>
<polyline clip-path="url(#clip790)" style="stroke:#000000; stroke-linecap:round; stroke-linejoin:round; stroke-width:4; stroke-opacity:1; fill:none" points="1537.83,1423.18 1537.83,1404.28 "/>
<polyline clip-path="url(#clip790)" style="stroke:#000000; stroke-linecap:round; stroke-linejoin:round; stroke-width:4; stroke-opacity:1; fill:none" points="1789.35,1423.18 1789.35,1404.28 "/>
<polyline clip-path="url(#clip790)" style="stroke:#000000; stroke-linecap:round; stroke-linejoin:round; stroke-width:4; stroke-opacity:1; fill:none" points="2040.87,1423.18 2040.87,1404.28 "/>
<polyline clip-path="url(#clip790)" style="stroke:#000000; stroke-linecap:round; stroke-linejoin:round; stroke-width:4; stroke-opacity:1; fill:none" points="2292.39,1423.18 2292.39,1404.28 "/>
<path clip-path="url(#clip790)" d="M280.231 1454.1 Q276.62 1454.1 274.791 1457.66 Q272.986 1461.2 272.986 1468.33 Q272.986 1475.44 274.791 1479.01 Q276.62 1482.55 280.231 1482.55 Q283.865 1482.55 285.671 1479.01 Q287.5 1475.44 287.5 1468.33 Q287.5 1461.2 285.671 1457.66 Q283.865 1454.1 280.231 1454.1 M280.231 1450.39 Q286.041 1450.39 289.097 1455 Q292.175 1459.58 292.175 1468.33 Q292.175 1477.06 289.097 1481.67 Q286.041 1486.25 280.231 1486.25 Q274.421 1486.25 271.342 1481.67 Q268.287 1477.06 268.287 1468.33 Q268.287 1459.58 271.342 1455 Q274.421 1450.39 280.231 1450.39 Z" fill="#000000" fill-rule="nonzero" fill-opacity="1" /><path clip-path="url(#clip790)" d="M522.029 1451.02 L540.385 1451.02 L540.385 1454.96 L526.311 1454.96 L526.311 1463.43 Q527.33 1463.08 528.348 1462.92 Q529.367 1462.73 530.385 1462.73 Q536.172 1462.73 539.552 1465.9 Q542.932 1469.08 542.932 1474.49 Q542.932 1480.07 539.459 1483.17 Q535.987 1486.25 529.668 1486.25 Q527.492 1486.25 525.223 1485.88 Q522.978 1485.51 520.571 1484.77 L520.571 1480.07 Q522.654 1481.2 524.876 1481.76 Q527.098 1482.32 529.575 1482.32 Q533.58 1482.32 535.918 1480.21 Q538.256 1478.1 538.256 1474.49 Q538.256 1470.88 535.918 1468.77 Q533.58 1466.67 529.575 1466.67 Q527.7 1466.67 525.825 1467.08 Q523.973 1467.5 522.029 1468.38 L522.029 1451.02 Z" fill="#000000" fill-rule="nonzero" fill-opacity="1" /><path clip-path="url(#clip790)" d="M757.959 1481.64 L765.598 1481.64 L765.598 1455.28 L757.287 1456.95 L757.287 1452.69 L765.551 1451.02 L770.227 1451.02 L770.227 1481.64 L777.866 1481.64 L777.866 1485.58 L757.959 1485.58 L757.959 1481.64 Z" fill="#000000" fill-rule="nonzero" fill-opacity="1" /><path clip-path="url(#clip790)" d="M797.31 1454.1 Q793.699 1454.1 791.871 1457.66 Q790.065 1461.2 790.065 1468.33 Q790.065 1475.44 791.871 1479.01 Q793.699 1482.55 797.31 1482.55 Q800.945 1482.55 802.75 1479.01 Q804.579 1475.44 804.579 1468.33 Q804.579 1461.2 802.75 1457.66 Q800.945 1454.1 797.31 1454.1 M797.31 1450.39 Q803.121 1450.39 806.176 1455 Q809.255 1459.58 809.255 1468.33 Q809.255 1477.06 806.176 1481.67 Q803.121 1486.25 797.31 1486.25 Q791.5 1486.25 788.422 1481.67 Q785.366 1477.06 785.366 1468.33 Q785.366 1459.58 788.422 1455 Q791.5 1450.39 797.31 1450.39 Z" fill="#000000" fill-rule="nonzero" fill-opacity="1" /><path clip-path="url(#clip790)" d="M1009.98 1481.64 L1017.62 1481.64 L1017.62 1455.28 L1009.31 1456.95 L1009.31 1452.69 L1017.57 1451.02 L1022.24 1451.02 L1022.24 1481.64 L1029.88 1481.64 L1029.88 1485.58 L1009.98 1485.58 L1009.98 1481.64 Z" fill="#000000" fill-rule="nonzero" fill-opacity="1" /><path clip-path="url(#clip790)" d="M1039.37 1451.02 L1057.73 1451.02 L1057.73 1454.96 L1043.66 1454.96 L1043.66 1463.43 Q1044.68 1463.08 1045.69 1462.92 Q1046.71 1462.73 1047.73 1462.73 Q1053.52 1462.73 1056.9 1465.9 Q1060.28 1469.08 1060.28 1474.49 Q1060.28 1480.07 1056.8 1483.17 Q1053.33 1486.25 1047.01 1486.25 Q1044.84 1486.25 1042.57 1485.88 Q1040.32 1485.51 1037.92 1484.77 L1037.92 1480.07 Q1040 1481.2 1042.22 1481.76 Q1044.44 1482.32 1046.92 1482.32 Q1050.93 1482.32 1053.26 1480.21 Q1055.6 1478.1 1055.6 1474.49 Q1055.6 1470.88 1053.26 1468.77 Q1050.93 1466.67 1046.92 1466.67 Q1045.05 1466.67 1043.17 1467.08 Q1041.32 1467.5 1039.37 1468.38 L1039.37 1451.02 Z" fill="#000000" fill-rule="nonzero" fill-opacity="1" /><path clip-path="url(#clip790)" d="M1265.08 1481.64 L1281.4 1481.64 L1281.4 1485.58 L1259.46 1485.58 L1259.46 1481.64 Q1262.12 1478.89 1266.7 1474.26 Q1271.31 1469.61 1272.49 1468.27 Q1274.74 1465.74 1275.62 1464.01 Q1276.52 1462.25 1276.52 1460.56 Q1276.52 1457.8 1274.58 1456.07 Q1272.65 1454.33 1269.55 1454.33 Q1267.35 1454.33 1264.9 1455.09 Q1262.47 1455.86 1259.69 1457.41 L1259.69 1452.69 Q1262.51 1451.55 1264.97 1450.97 Q1267.42 1450.39 1269.46 1450.39 Q1274.83 1450.39 1278.02 1453.08 Q1281.22 1455.77 1281.22 1460.26 Q1281.22 1462.39 1280.41 1464.31 Q1279.62 1466.2 1277.51 1468.8 Q1276.94 1469.47 1273.83 1472.69 Q1270.73 1475.88 1265.08 1481.64 Z" fill="#000000" fill-rule="nonzero" fill-opacity="1" /><path clip-path="url(#clip790)" d="M1301.22 1454.1 Q1297.61 1454.1 1295.78 1457.66 Q1293.97 1461.2 1293.97 1468.33 Q1293.97 1475.44 1295.78 1479.01 Q1297.61 1482.55 1301.22 1482.55 Q1304.85 1482.55 1306.66 1479.01 Q1308.49 1475.44 1308.49 1468.33 Q1308.49 1461.2 1306.66 1457.66 Q1304.85 1454.1 1301.22 1454.1 M1301.22 1450.39 Q1307.03 1450.39 1310.08 1455 Q1313.16 1459.58 1313.16 1468.33 Q1313.16 1477.06 1310.08 1481.67 Q1307.03 1486.25 1301.22 1486.25 Q1295.41 1486.25 1292.33 1481.67 Q1289.27 1477.06 1289.27 1468.33 Q1289.27 1459.58 1292.33 1455 Q1295.41 1450.39 1301.22 1450.39 Z" fill="#000000" fill-rule="nonzero" fill-opacity="1" /><path clip-path="url(#clip790)" d="M1517.1 1481.64 L1533.42 1481.64 L1533.42 1485.58 L1511.48 1485.58 L1511.48 1481.64 Q1514.14 1478.89 1518.72 1474.26 Q1523.33 1469.61 1524.51 1468.27 Q1526.75 1465.74 1527.63 1464.01 Q1528.54 1462.25 1528.54 1460.56 Q1528.54 1457.8 1526.59 1456.07 Q1524.67 1454.33 1521.57 1454.33 Q1519.37 1454.33 1516.92 1455.09 Q1514.49 1455.86 1511.71 1457.41 L1511.71 1452.69 Q1514.53 1451.55 1516.99 1450.97 Q1519.44 1450.39 1521.48 1450.39 Q1526.85 1450.39 1530.04 1453.08 Q1533.24 1455.77 1533.24 1460.26 Q1533.24 1462.39 1532.43 1464.31 Q1531.64 1466.2 1529.53 1468.8 Q1528.95 1469.47 1525.85 1472.69 Q1522.75 1475.88 1517.1 1481.64 Z" fill="#000000" fill-rule="nonzero" fill-opacity="1" /><path clip-path="url(#clip790)" d="M1543.28 1451.02 L1561.64 1451.02 L1561.64 1454.96 L1547.56 1454.96 L1547.56 1463.43 Q1548.58 1463.08 1549.6 1462.92 Q1550.62 1462.73 1551.64 1462.73 Q1557.43 1462.73 1560.81 1465.9 Q1564.19 1469.08 1564.19 1474.49 Q1564.19 1480.07 1560.71 1483.17 Q1557.24 1486.25 1550.92 1486.25 Q1548.75 1486.25 1546.48 1485.88 Q1544.23 1485.51 1541.82 1484.77 L1541.82 1480.07 Q1543.91 1481.2 1546.13 1481.76 Q1548.35 1482.32 1550.83 1482.32 Q1554.83 1482.32 1557.17 1480.21 Q1559.51 1478.1 1559.51 1474.49 Q1559.51 1470.88 1557.17 1468.77 Q1554.83 1466.67 1550.83 1466.67 Q1548.95 1466.67 1547.08 1467.08 Q1545.23 1467.5 1543.28 1468.38 L1543.28 1451.02 Z" fill="#000000" fill-rule="nonzero" fill-opacity="1" /><path clip-path="url(#clip790)" d="M1778.19 1466.95 Q1781.55 1467.66 1783.43 1469.93 Q1785.32 1472.2 1785.32 1475.53 Q1785.32 1480.65 1781.8 1483.45 Q1778.29 1486.25 1771.8 1486.25 Q1769.63 1486.25 1767.31 1485.81 Q1765.02 1485.39 1762.57 1484.54 L1762.57 1480.02 Q1764.51 1481.16 1766.83 1481.74 Q1769.14 1482.32 1771.67 1482.32 Q1776.06 1482.32 1778.36 1480.58 Q1780.67 1478.84 1780.67 1475.53 Q1780.67 1472.48 1778.52 1470.77 Q1776.39 1469.03 1772.57 1469.03 L1768.54 1469.03 L1768.54 1465.19 L1772.75 1465.19 Q1776.2 1465.19 1778.03 1463.82 Q1779.86 1462.43 1779.86 1459.84 Q1779.86 1457.18 1777.96 1455.77 Q1776.09 1454.33 1772.57 1454.33 Q1770.65 1454.33 1768.45 1454.75 Q1766.25 1455.16 1763.61 1456.04 L1763.61 1451.88 Q1766.27 1451.14 1768.59 1450.77 Q1770.93 1450.39 1772.99 1450.39 Q1778.31 1450.39 1781.41 1452.83 Q1784.51 1455.23 1784.51 1459.35 Q1784.51 1462.22 1782.87 1464.21 Q1781.23 1466.18 1778.19 1466.95 Z" fill="#000000" fill-rule="nonzero" fill-opacity="1" /><path clip-path="url(#clip790)" d="M1804.19 1454.1 Q1800.58 1454.1 1798.75 1457.66 Q1796.94 1461.2 1796.94 1468.33 Q1796.94 1475.44 1798.75 1479.01 Q1800.58 1482.55 1804.19 1482.55 Q1807.82 1482.55 1809.63 1479.01 Q1811.46 1475.44 1811.46 1468.33 Q1811.46 1461.2 1809.63 1457.66 Q1807.82 1454.1 1804.19 1454.1 M1804.19 1450.39 Q1810 1450.39 1813.05 1455 Q1816.13 1459.58 1816.13 1468.33 Q1816.13 1477.06 1813.05 1481.67 Q1810 1486.25 1804.19 1486.25 Q1798.38 1486.25 1795.3 1481.67 Q1792.24 1477.06 1792.24 1468.33 Q1792.24 1459.58 1795.3 1455 Q1798.38 1450.39 1804.19 1450.39 Z" fill="#000000" fill-rule="nonzero" fill-opacity="1" /><path clip-path="url(#clip790)" d="M2030.21 1466.95 Q2033.57 1467.66 2035.44 1469.93 Q2037.34 1472.2 2037.34 1475.53 Q2037.34 1480.65 2033.82 1483.45 Q2030.3 1486.25 2023.82 1486.25 Q2021.65 1486.25 2019.33 1485.81 Q2017.04 1485.39 2014.59 1484.54 L2014.59 1480.02 Q2016.53 1481.16 2018.85 1481.74 Q2021.16 1482.32 2023.68 1482.32 Q2028.08 1482.32 2030.37 1480.58 Q2032.69 1478.84 2032.69 1475.53 Q2032.69 1472.48 2030.54 1470.77 Q2028.41 1469.03 2024.59 1469.03 L2020.56 1469.03 L2020.56 1465.19 L2024.77 1465.19 Q2028.22 1465.19 2030.05 1463.82 Q2031.88 1462.43 2031.88 1459.84 Q2031.88 1457.18 2029.98 1455.77 Q2028.1 1454.33 2024.59 1454.33 Q2022.67 1454.33 2020.47 1454.75 Q2018.27 1455.16 2015.63 1456.04 L2015.63 1451.88 Q2018.29 1451.14 2020.61 1450.77 Q2022.94 1450.39 2025 1450.39 Q2030.33 1450.39 2033.43 1452.83 Q2036.53 1455.23 2036.53 1459.35 Q2036.53 1462.22 2034.89 1464.21 Q2033.24 1466.18 2030.21 1466.95 Z" fill="#000000" fill-rule="nonzero" fill-opacity="1" /><path clip-path="url(#clip790)" d="M2046.25 1451.02 L2064.61 1451.02 L2064.61 1454.96 L2050.54 1454.96 L2050.54 1463.43 Q2051.55 1463.08 2052.57 1462.92 Q2053.59 1462.73 2054.61 1462.73 Q2060.4 1462.73 2063.78 1465.9 Q2067.16 1469.08 2067.16 1474.49 Q2067.16 1480.07 2063.68 1483.17 Q2060.21 1486.25 2053.89 1486.25 Q2051.72 1486.25 2049.45 1485.88 Q2047.2 1485.51 2044.79 1484.77 L2044.79 1480.07 Q2046.88 1481.2 2049.1 1481.76 Q2051.32 1482.32 2053.8 1482.32 Q2057.8 1482.32 2060.14 1480.21 Q2062.48 1478.1 2062.48 1474.49 Q2062.48 1470.88 2060.14 1468.77 Q2057.8 1466.67 2053.8 1466.67 Q2051.92 1466.67 2050.05 1467.08 Q2048.2 1467.5 2046.25 1468.38 L2046.25 1451.02 Z" fill="#000000" fill-rule="nonzero" fill-opacity="1" /><path clip-path="url(#clip790)" d="M2280.56 1455.09 L2268.76 1473.54 L2280.56 1473.54 L2280.56 1455.09 M2279.34 1451.02 L2285.22 1451.02 L2285.22 1473.54 L2290.15 1473.54 L2290.15 1477.43 L2285.22 1477.43 L2285.22 1485.58 L2280.56 1485.58 L2280.56 1477.43 L2264.96 1477.43 L2264.96 1472.92 L2279.34 1451.02 Z" fill="#000000" fill-rule="nonzero" fill-opacity="1" /><path clip-path="url(#clip790)" d="M2307.88 1454.1 Q2304.27 1454.1 2302.44 1457.66 Q2300.63 1461.2 2300.63 1468.33 Q2300.63 1475.44 2302.44 1479.01 Q2304.27 1482.55 2307.88 1482.55 Q2311.51 1482.55 2313.32 1479.01 Q2315.15 1475.44 2315.15 1468.33 Q2315.15 1461.2 2313.32 1457.66 Q2311.51 1454.1 2307.88 1454.1 M2307.88 1450.39 Q2313.69 1450.39 2316.74 1455 Q2319.82 1459.58 2319.82 1468.33 Q2319.82 1477.06 2316.74 1481.67 Q2313.69 1486.25 2307.88 1486.25 Q2302.07 1486.25 2298.99 1481.67 Q2295.93 1477.06 2295.93 1468.33 Q2295.93 1459.58 2298.99 1455 Q2302.07 1450.39 2307.88 1450.39 Z" fill="#000000" fill-rule="nonzero" fill-opacity="1" /><path clip-path="url(#clip790)" d="M1294.78 1531.91 Q1294.78 1532.81 1294.36 1533.04 Q1293.94 1533.23 1292.79 1533.23 L1286.6 1533.23 L1281.71 1552.69 Q1281.32 1554.39 1281.32 1555.84 Q1281.32 1557.45 1281.8 1558.16 Q1282.32 1558.87 1283.38 1558.87 Q1285.47 1558.87 1287.73 1556.97 Q1290.02 1555.07 1291.95 1550.43 Q1292.21 1549.82 1292.33 1549.69 Q1292.5 1549.53 1292.91 1549.53 Q1293.72 1549.53 1293.72 1550.17 Q1293.72 1550.4 1293.27 1551.43 Q1292.85 1552.46 1291.92 1553.97 Q1291.01 1555.49 1289.82 1556.9 Q1288.66 1558.32 1286.89 1559.35 Q1285.12 1560.35 1283.22 1560.35 Q1280.55 1560.35 1278.84 1558.64 Q1277.17 1556.94 1277.17 1554.26 Q1277.17 1553.39 1277.84 1550.62 Q1278.52 1547.82 1282.19 1533.23 L1276.36 1533.23 Q1275.56 1533.23 1275.23 1533.2 Q1274.94 1533.17 1274.72 1533.01 Q1274.52 1532.81 1274.52 1532.43 Q1274.52 1531.82 1274.78 1531.56 Q1275.04 1531.27 1275.36 1531.24 Q1275.72 1531.17 1276.52 1531.17 L1282.7 1531.17 L1285.28 1520.71 Q1285.54 1519.67 1286.18 1519.09 Q1286.86 1518.48 1287.25 1518.42 Q1287.63 1518.32 1287.92 1518.32 Q1288.79 1518.32 1289.31 1518.81 Q1289.82 1519.26 1289.82 1520.09 Q1289.82 1520.54 1287.12 1531.17 L1292.91 1531.17 Q1293.65 1531.17 1293.94 1531.2 Q1294.27 1531.24 1294.52 1531.4 Q1294.78 1531.56 1294.78 1531.91 Z" fill="#000000" fill-rule="nonzero" fill-opacity="1" /><polyline clip-path="url(#clip790)" style="stroke:#000000; stroke-linecap:round; stroke-linejoin:round; stroke-width:4; stroke-opacity:1; fill:none" points="219.866,1423.18 219.866,123.472 "/>
<polyline clip-path="url(#clip790)" style="stroke:#000000; stroke-linecap:round; stroke-linejoin:round; stroke-width:4; stroke-opacity:1; fill:none" points="219.866,1266.6 238.764,1266.6 "/>
<polyline clip-path="url(#clip790)" style="stroke:#000000; stroke-linecap:round; stroke-linejoin:round; stroke-width:4; stroke-opacity:1; fill:none" points="219.866,897.816 238.764,897.816 "/>
<polyline clip-path="url(#clip790)" style="stroke:#000000; stroke-linecap:round; stroke-linejoin:round; stroke-width:4; stroke-opacity:1; fill:none" points="219.866,529.036 238.764,529.036 "/>
<polyline clip-path="url(#clip790)" style="stroke:#000000; stroke-linecap:round; stroke-linejoin:round; stroke-width:4; stroke-opacity:1; fill:none" points="219.866,160.256 238.764,160.256 "/>
<path clip-path="url(#clip790)" d="M126.205 1252.4 Q122.593 1252.4 120.765 1255.96 Q118.959 1259.5 118.959 1266.63 Q118.959 1273.74 120.765 1277.3 Q122.593 1280.84 126.205 1280.84 Q129.839 1280.84 131.644 1277.3 Q133.473 1273.74 133.473 1266.63 Q133.473 1259.5 131.644 1255.96 Q129.839 1252.4 126.205 1252.4 M126.205 1248.69 Q132.015 1248.69 135.07 1253.3 Q138.149 1257.88 138.149 1266.63 Q138.149 1275.36 135.07 1279.96 Q132.015 1284.55 126.205 1284.55 Q120.394 1284.55 117.316 1279.96 Q114.26 1275.36 114.26 1266.63 Q114.26 1257.88 117.316 1253.3 Q120.394 1248.69 126.205 1248.69 Z" fill="#000000" fill-rule="nonzero" fill-opacity="1" /><path clip-path="url(#clip790)" d="M146.366 1278 L151.251 1278 L151.251 1283.88 L146.366 1283.88 L146.366 1278 Z" fill="#000000" fill-rule="nonzero" fill-opacity="1" /><path clip-path="url(#clip790)" d="M174.283 1253.39 L162.477 1271.84 L174.283 1271.84 L174.283 1253.39 M173.056 1249.32 L178.936 1249.32 L178.936 1271.84 L183.866 1271.84 L183.866 1275.73 L178.936 1275.73 L178.936 1283.88 L174.283 1283.88 L174.283 1275.73 L158.681 1275.73 L158.681 1271.21 L173.056 1249.32 Z" fill="#000000" fill-rule="nonzero" fill-opacity="1" /><path clip-path="url(#clip790)" d="M126.529 883.615 Q122.918 883.615 121.089 887.18 Q119.283 890.722 119.283 897.851 Q119.283 904.958 121.089 908.522 Q122.918 912.064 126.529 912.064 Q130.163 912.064 131.968 908.522 Q133.797 904.958 133.797 897.851 Q133.797 890.722 131.968 887.18 Q130.163 883.615 126.529 883.615 M126.529 879.911 Q132.339 879.911 135.394 884.518 Q138.473 889.101 138.473 897.851 Q138.473 906.578 135.394 911.184 Q132.339 915.768 126.529 915.768 Q120.718 915.768 117.64 911.184 Q114.584 906.578 114.584 897.851 Q114.584 889.101 117.64 884.518 Q120.718 879.911 126.529 879.911 Z" fill="#000000" fill-rule="nonzero" fill-opacity="1" /><path clip-path="url(#clip790)" d="M146.691 909.217 L151.575 909.217 L151.575 915.096 L146.691 915.096 L146.691 909.217 Z" fill="#000000" fill-rule="nonzero" fill-opacity="1" /><path clip-path="url(#clip790)" d="M172.339 895.953 Q169.19 895.953 167.339 898.106 Q165.51 900.259 165.51 904.009 Q165.51 907.735 167.339 909.911 Q169.19 912.064 172.339 912.064 Q175.487 912.064 177.315 909.911 Q179.167 907.735 179.167 904.009 Q179.167 900.259 177.315 898.106 Q175.487 895.953 172.339 895.953 M181.621 881.3 L181.621 885.56 Q179.862 884.726 178.056 884.286 Q176.274 883.847 174.514 883.847 Q169.885 883.847 167.431 886.972 Q165.001 890.097 164.653 896.416 Q166.019 894.402 168.079 893.337 Q170.139 892.249 172.616 892.249 Q177.825 892.249 180.834 895.421 Q183.866 898.569 183.866 904.009 Q183.866 909.333 180.718 912.55 Q177.57 915.768 172.339 915.768 Q166.343 915.768 163.172 911.184 Q160.001 906.578 160.001 897.851 Q160.001 889.657 163.89 884.796 Q167.778 879.911 174.329 879.911 Q176.089 879.911 177.871 880.259 Q179.676 880.606 181.621 881.3 Z" fill="#000000" fill-rule="nonzero" fill-opacity="1" /><path clip-path="url(#clip790)" d="M126.783 514.835 Q123.172 514.835 121.343 518.4 Q119.538 521.942 119.538 529.071 Q119.538 536.178 121.343 539.742 Q123.172 543.284 126.783 543.284 Q130.417 543.284 132.223 539.742 Q134.052 536.178 134.052 529.071 Q134.052 521.942 132.223 518.4 Q130.417 514.835 126.783 514.835 M126.783 511.131 Q132.593 511.131 135.649 515.738 Q138.728 520.321 138.728 529.071 Q138.728 537.798 135.649 542.404 Q132.593 546.988 126.783 546.988 Q120.973 546.988 117.894 542.404 Q114.839 537.798 114.839 529.071 Q114.839 520.321 117.894 515.738 Q120.973 511.131 126.783 511.131 Z" fill="#000000" fill-rule="nonzero" fill-opacity="1" /><path clip-path="url(#clip790)" d="M146.945 540.437 L151.829 540.437 L151.829 546.316 L146.945 546.316 L146.945 540.437 Z" fill="#000000" fill-rule="nonzero" fill-opacity="1" /><path clip-path="url(#clip790)" d="M172.014 529.904 Q168.681 529.904 166.76 531.687 Q164.862 533.469 164.862 536.594 Q164.862 539.719 166.76 541.502 Q168.681 543.284 172.014 543.284 Q175.348 543.284 177.269 541.502 Q179.19 539.696 179.19 536.594 Q179.19 533.469 177.269 531.687 Q175.371 529.904 172.014 529.904 M167.339 527.914 Q164.329 527.173 162.64 525.113 Q160.973 523.053 160.973 520.09 Q160.973 515.946 163.913 513.539 Q166.876 511.131 172.014 511.131 Q177.176 511.131 180.116 513.539 Q183.056 515.946 183.056 520.09 Q183.056 523.053 181.366 525.113 Q179.7 527.173 176.714 527.914 Q180.093 528.701 181.968 530.992 Q183.866 533.284 183.866 536.594 Q183.866 541.617 180.788 544.303 Q177.732 546.988 172.014 546.988 Q166.297 546.988 163.218 544.303 Q160.163 541.617 160.163 536.594 Q160.163 533.284 162.061 530.992 Q163.959 528.701 167.339 527.914 M165.626 520.529 Q165.626 523.215 167.292 524.719 Q168.982 526.224 172.014 526.224 Q175.024 526.224 176.714 524.719 Q178.426 523.215 178.426 520.529 Q178.426 517.844 176.714 516.34 Q175.024 514.835 172.014 514.835 Q168.982 514.835 167.292 516.34 Q165.626 517.844 165.626 520.529 Z" fill="#000000" fill-rule="nonzero" fill-opacity="1" /><path clip-path="url(#clip790)" d="M117.501 173.601 L125.14 173.601 L125.14 147.236 L116.83 148.902 L116.83 144.643 L125.093 142.976 L129.769 142.976 L129.769 173.601 L137.408 173.601 L137.408 177.536 L117.501 177.536 L117.501 173.601 Z" fill="#000000" fill-rule="nonzero" fill-opacity="1" /><path clip-path="url(#clip790)" d="M146.853 171.657 L151.737 171.657 L151.737 177.536 L146.853 177.536 L146.853 171.657 Z" fill="#000000" fill-rule="nonzero" fill-opacity="1" /><path clip-path="url(#clip790)" d="M171.922 146.055 Q168.311 146.055 166.482 149.62 Q164.677 153.161 164.677 160.291 Q164.677 167.397 166.482 170.962 Q168.311 174.504 171.922 174.504 Q175.556 174.504 177.362 170.962 Q179.19 167.397 179.19 160.291 Q179.19 153.161 177.362 149.62 Q175.556 146.055 171.922 146.055 M171.922 142.351 Q177.732 142.351 180.788 146.958 Q183.866 151.541 183.866 160.291 Q183.866 169.018 180.788 173.624 Q177.732 178.208 171.922 178.208 Q166.112 178.208 163.033 173.624 Q159.978 169.018 159.978 160.291 Q159.978 151.541 163.033 146.958 Q166.112 142.351 171.922 142.351 Z" fill="#000000" fill-rule="nonzero" fill-opacity="1" /><path clip-path="url(#clip790)" d="M28.8749 805.767 Q33.6413 805.767 38.1179 808.215 Q42.5946 810.63 45.2998 814.43 Q48.0051 818.198 48.0051 821.999 Q48.0051 826.282 43.5607 828.504 Q59.6959 832.53 60.1145 832.755 Q61.4994 833.689 61.4994 835.042 Q61.4994 835.879 60.9841 836.395 Q60.501 836.91 59.7281 836.91 Q59.4704 836.878 58.6653 836.685 L32.7396 830.243 Q26.7171 828.762 22.4337 824.285 Q18.1181 819.777 18.1181 814.946 Q18.1181 811.113 20.9844 808.44 Q23.8507 805.767 28.8749 805.767 M26.0407 810.501 Q22.8202 810.501 21.2099 811.789 Q19.5674 813.078 19.5674 815.074 Q19.5674 816.91 21.0488 819.132 Q22.5303 821.322 25.8153 823.255 Q27.7154 824.285 30.0665 825.026 Q32.4175 825.767 38.2146 827.216 Q40.5334 827.731 40.6622 827.731 Q40.9199 827.731 41.4996 827.603 Q42.0793 827.442 42.981 827.055 Q43.8506 826.636 44.6235 826.057 Q45.3965 825.477 45.9762 824.414 Q46.5237 823.351 46.5237 822.063 Q46.5237 820.066 44.9134 817.941 Q43.2709 815.783 40.2757 814.205 Q37.8603 812.884 33.3193 811.693 Q28.746 810.501 26.0407 810.501 Z" fill="#000000" fill-rule="nonzero" fill-opacity="1" /><path clip-path="url(#clip790)" d="M80.1007 799.026 L78.6804 799.026 L78.6804 797.922 Q78.6804 795.419 78.2746 794.856 Q77.8462 794.269 76.4936 794.269 L52.1685 794.269 Q50.8384 794.269 50.4326 794.856 Q50.0043 795.442 50.0043 797.922 L50.0043 799.026 L48.5615 799.026 L48.5615 782.141 Q48.5615 776.234 53.2732 772.131 Q57.9849 768.006 64.5903 768.006 Q71.0605 768.006 75.5918 772.154 Q80.1007 776.279 80.1007 782.141 L80.1007 799.026 M76.8318 790.302 Q78.0266 790.302 78.3648 789.964 Q78.6804 789.625 78.6804 788.047 L78.6804 783.381 Q78.6804 780.337 77.4405 778.286 Q76.178 776.234 74.7352 775.175 Q71.2634 772.627 64.5903 772.627 Q57.5791 772.627 54.2877 775.017 Q50.0043 778.105 50.0043 783.426 L50.0043 788.047 Q50.0043 789.625 50.3199 789.964 Q50.6355 790.302 51.8529 790.302 L76.8318 790.302 Z" fill="#000000" fill-rule="nonzero" fill-opacity="1" /><path clip-path="url(#clip790)" d="M50.0043 763.74 L48.5615 763.74 Q48.5615 763.086 48.6065 761.914 Q48.6516 760.741 48.6742 759.817 Q48.6967 758.893 48.6967 758.104 Q48.6967 753.212 48.5615 751.543 L50.0043 751.543 Q50.0043 755.421 51.3795 755.421 Q51.6951 755.421 51.9882 755.331 L74.6901 747.914 L54.8964 741.489 L51.65 742.503 Q50.5003 742.864 50.2523 743.653 Q50.0043 744.442 50.0043 746.651 L48.5615 746.651 Q48.5615 745.997 48.6065 744.825 Q48.6516 743.653 48.6742 742.729 Q48.6967 741.804 48.6967 741.038 Q48.6967 736.146 48.5615 734.477 L50.0043 734.477 Q50.0043 738.355 51.3795 738.355 Q51.5147 738.355 52.0783 738.22 L74.6901 730.825 L53.3634 723.904 Q52.6645 723.679 52.439 723.656 Q51.6049 723.656 50.8384 724.626 Q50.0494 725.595 50.0043 727.692 L48.5615 727.692 Q48.6967 724.085 48.6967 722.191 Q48.6967 720.072 48.5615 717.998 L50.0043 717.998 Q50.0043 721.65 53.0928 722.597 L80.1908 731.434 Q80.5515 731.524 80.7093 731.592 Q80.8897 731.659 81.0024 731.84 Q81.1151 732.02 81.1151 732.336 Q81.1151 732.944 80.2359 733.215 L56.745 740.88 L80.1908 748.5 Q80.5515 748.59 80.7093 748.68 Q80.8897 748.748 81.0024 748.928 Q81.1151 749.109 81.1151 749.424 Q81.1151 750.033 80.2359 750.303 L51.9431 759.546 Q50.613 759.952 50.3199 760.584 Q50.0043 761.192 50.0043 763.74 Z" fill="#000000" fill-rule="nonzero" fill-opacity="1" /><path clip-path="url(#clip790)" d="M695.407 18.8198 Q695.407 20.5004 693.972 20.5004 Q689.341 20.6643 687.455 22.2219 Q685.611 23.7385 684.914 26.6898 L673.191 73.4585 Q672.781 74.9341 672.535 75.0981 Q672.289 75.2211 671.838 75.2211 Q671.264 75.2211 670.936 74.9341 Q670.65 74.6472 670.24 73.6225 L649.335 24.1894 Q649.171 23.8615 648.966 23.4106 Q648.761 22.9597 648.597 22.6728 L637.489 66.9822 Q637.161 68.2529 637.161 68.9087 Q637.161 70.5073 638.268 71.532 Q639.416 72.5158 642.695 72.6387 Q644.375 72.6387 644.375 73.5405 Q644.375 75.2211 642.859 75.2211 Q641.465 75.2211 638.555 75.0981 Q635.645 74.9751 634.21 74.9751 Q632.816 74.9751 629.988 75.0981 Q627.16 75.2211 625.807 75.2211 Q624.742 75.2211 624.742 74.2783 Q624.742 73.5405 625.028 73.1716 Q625.315 72.7617 625.561 72.7207 Q625.807 72.6387 626.176 72.6387 Q628.635 72.5568 630.316 72.0649 Q631.997 71.573 632.939 70.6303 Q633.923 69.6875 634.374 68.7448 Q634.866 67.761 635.235 66.3264 L646.466 21.2382 Q646.466 20.5004 640.768 20.5004 Q639.785 20.5004 639.375 20.4594 Q639.006 20.4184 638.719 20.2135 Q638.432 20.0085 638.432 19.5576 Q638.432 18.4099 638.924 18.164 Q639.416 17.8771 640.85 17.8771 L652.122 17.8771 Q653.557 17.8771 653.926 18.123 Q654.295 18.3279 654.787 19.4756 L673.355 63.2932 L682.741 25.952 Q682.987 25.2141 682.987 24.1894 Q682.987 22.5498 681.758 21.5661 Q680.569 20.5414 677.29 20.5004 Q675.773 20.5004 675.773 19.5576 Q675.773 18.7788 676.06 18.4099 Q676.388 18 676.634 17.959 Q676.921 17.8771 677.29 17.8771 Q678.683 17.8771 681.553 18 Q684.422 18.123 685.857 18.123 Q687.25 18.123 690.078 18 Q692.948 17.8771 694.341 17.8771 Q694.833 17.8771 695.079 18.123 Q695.366 18.3279 695.407 18.5739 L695.407 18.8198 Z" fill="#000000" fill-rule="nonzero" fill-opacity="1" /><path clip-path="url(#clip790)" d="M714.772 62.4734 Q714.854 61.4487 716.452 61.4487 L767.894 61.4487 Q770.312 61.4487 770.353 62.3914 Q770.353 63.4162 768.058 63.3752 L717.026 63.3752 Q714.772 63.4162 714.772 62.4734 M714.772 46.0777 Q714.772 45.053 716.534 45.0939 L767.812 45.0939 Q770.312 45.0939 770.353 46.0777 Q770.353 47.0204 768.222 47.0204 L716.452 47.0204 Q714.772 47.0204 714.772 46.0777 Z" fill="#000000" fill-rule="nonzero" fill-opacity="1" /><path clip-path="url(#clip790)" d="M802.732 27.3046 L802.732 24.6813 Q812.815 24.6813 818.021 19.3117 Q819.455 19.3117 819.701 19.6396 Q819.947 19.9675 819.947 21.4841 L819.947 68.5808 Q819.947 71.0811 821.177 71.8599 Q822.407 72.6387 827.776 72.6387 L830.441 72.6387 L830.441 75.2211 Q827.489 74.9751 816.832 74.9751 Q806.175 74.9751 803.265 75.2211 L803.265 72.6387 L805.929 72.6387 Q811.217 72.6387 812.487 71.9009 Q813.758 71.1221 813.758 68.5808 L813.758 25.0912 Q809.372 27.3046 802.732 27.3046 Z" fill="#000000" fill-rule="nonzero" fill-opacity="1" /><path clip-path="url(#clip790)" d="M833.278 48.701 Q833.278 35.5025 840 27.4276 Q846.723 19.3117 855.371 19.3117 Q860.413 19.3117 863.2 21.894 Q866.029 24.4353 866.029 28.3703 Q866.029 30.5427 864.758 31.4855 Q863.487 32.4283 862.176 32.4283 Q860.659 32.4283 859.47 31.4035 Q858.282 30.3788 858.282 28.5343 Q858.282 24.7633 862.913 24.7633 Q860.741 21.4021 855.535 21.4021 Q853.937 21.4021 852.297 21.894 Q850.658 22.3449 848.526 23.9025 Q846.395 25.4601 844.755 27.9194 Q843.116 30.3788 841.968 35.0106 Q840.82 39.6424 840.82 45.6678 L840.82 47.6763 Q844.263 39.3554 851.313 39.3964 Q858.364 39.3964 863.241 44.766 Q868.119 50.1356 868.119 58.0875 Q868.119 66.2444 863.036 71.655 Q857.954 77.0656 850.822 77.0656 Q847.624 77.0656 844.714 75.7129 Q841.845 74.4013 839.14 71.3681 Q836.475 68.3349 834.877 62.5144 Q833.278 56.6939 833.278 48.701 M840.984 56.243 Q840.984 64.4819 842.501 68.4168 Q842.747 69.0727 843.279 69.9744 Q843.853 70.8762 844.796 72.0649 Q845.78 73.2126 847.378 73.9914 Q848.977 74.7292 850.822 74.7292 Q856.437 74.7292 859.142 69.2776 Q860.577 66.2444 860.577 58.0056 Q860.577 49.6028 859.06 46.5286 Q856.478 41.3229 851.231 41.3229 Q847.706 41.3229 845.247 43.7413 Q842.829 46.1597 841.886 49.3978 Q840.984 52.636 840.984 56.243 Z" fill="#000000" fill-rule="nonzero" fill-opacity="1" /><path clip-path="url(#clip790)" d="M876.037 73.8684 Q874.848 72.5158 874.848 70.7532 Q874.848 68.9907 875.996 67.679 Q877.185 66.3264 879.316 66.3264 Q881.817 66.3264 883.251 68.7448 Q884.686 71.1221 884.686 75.1391 Q884.686 79.4839 882.923 83.5009 Q881.161 87.5588 879.439 89.4853 Q877.718 91.4118 877.021 91.4118 Q876.201 91.4118 876.201 90.5101 Q876.201 90.1821 876.775 89.5673 Q882.8 83.091 882.841 75.1391 Q882.841 73.8684 882.677 73.8684 L882.472 74.0324 Q881.038 75.2211 879.316 75.2211 Q877.226 75.2211 876.037 73.8684 Z" fill="#000000" fill-rule="nonzero" fill-opacity="1" /><path clip-path="url(#clip790)" d="M933.356 75.2211 L933.356 72.6387 L935.365 72.6387 Q939.915 72.6387 940.939 71.9009 Q942.005 71.1221 942.005 68.6628 L942.005 24.4353 Q942.005 22.017 940.939 21.2792 Q939.874 20.5004 935.365 20.5004 L933.356 20.5004 L933.356 17.8771 L964.057 17.8771 Q974.797 17.8771 982.257 26.4438 Q989.758 35.0106 989.758 47.0204 Q989.758 58.7844 982.216 67.0232 Q974.715 75.2211 964.057 75.2211 L933.356 75.2211 M949.219 69.2776 Q949.219 71.45 949.834 72.0649 Q950.449 72.6387 953.318 72.6387 L961.803 72.6387 Q967.337 72.6387 971.067 70.3843 Q974.797 68.0889 976.723 65.4656 Q981.355 59.1533 981.355 47.0204 Q981.355 34.2728 977.01 28.2883 Q971.394 20.5004 961.721 20.5004 L953.318 20.5004 Q950.449 20.5004 949.834 21.0742 Q949.219 21.6481 949.219 23.8615 L949.219 69.2776 Z" fill="#000000" fill-rule="nonzero" fill-opacity="1" /><path clip-path="url(#clip790)" d="M1002.64 70.7122 Q997.103 65.2197 997.103 57.2678 Q997.103 49.2748 1002.51 43.4544 Q1007.97 37.5929 1015.75 37.5929 Q1023.38 37.5929 1028.83 43.4134 Q1034.32 49.1929 1034.32 57.2678 Q1034.32 65.1787 1028.79 70.6713 Q1023.3 76.1638 1015.67 76.1638 Q1008.21 76.1638 1002.64 70.7122 M1004.07 56.5709 Q1004.07 64.7278 1006.2 68.4168 Q1009.48 74.0324 1015.75 74.0324 Q1018.87 74.0324 1021.45 72.3518 Q1024.07 70.6713 1025.51 67.843 Q1027.35 64.154 1027.35 56.5709 Q1027.35 48.4961 1025.14 44.93 Q1021.86 39.4784 1015.67 39.4784 Q1012.97 39.4784 1010.3 40.913 Q1007.68 42.3067 1006.08 45.0939 Q1004.07 48.783 1004.07 56.5709 Z" fill="#000000" fill-rule="nonzero" fill-opacity="1" /><path clip-path="url(#clip790)" d="M1036.99 75.2211 L1036.99 72.6387 Q1041.46 72.6387 1042.49 72.1059 Q1043.51 71.532 1043.51 68.8267 L1043.51 46.3236 Q1043.51 43.2084 1042.4 42.4296 Q1041.34 41.6508 1036.99 41.6508 L1036.99 39.0275 L1048.8 38.1258 L1048.8 46.9385 Q1052.73 38.1258 1061.22 38.1258 Q1071.06 38.1258 1072.41 46.3236 Q1073.84 43.1265 1076.84 40.6261 Q1079.87 38.1258 1084.58 38.1258 Q1090.89 38.1258 1093.39 41.241 Q1095.24 43.3314 1095.61 45.6678 Q1095.98 48.0042 1095.98 54.0706 L1095.98 70.0974 Q1096.06 71.8599 1097.41 72.2698 Q1098.76 72.6387 1102.54 72.6387 L1102.54 75.2211 Q1093.97 74.9751 1093.15 74.9751 Q1092.49 74.9751 1083.64 75.2211 L1083.64 72.6387 Q1088.11 72.6387 1089.13 72.1059 Q1090.2 71.532 1090.2 68.8267 L1090.2 49.2748 Q1090.2 45.012 1088.89 42.5116 Q1087.57 39.9703 1083.97 39.9703 Q1079.62 39.9703 1076.14 43.6183 Q1072.65 47.2664 1072.65 53.4148 L1072.65 68.8267 Q1072.65 71.532 1073.68 72.1059 Q1074.74 72.6387 1079.21 72.6387 L1079.21 75.2211 Q1070.65 74.9751 1069.79 74.9751 Q1069.13 74.9751 1060.32 75.2211 L1060.32 72.6387 Q1064.78 72.6387 1065.81 72.1059 Q1066.87 71.532 1066.87 68.8267 L1066.87 49.2748 Q1066.87 45.012 1065.56 42.5116 Q1064.25 39.9703 1060.64 39.9703 Q1056.3 39.9703 1052.82 43.6183 Q1049.33 47.2664 1049.33 53.4148 L1049.33 68.8267 Q1049.33 71.532 1050.36 72.1059 Q1051.42 72.6387 1055.85 72.6387 L1055.85 75.2211 Q1047.28 74.9751 1046.46 74.9751 Q1045.81 74.9751 1036.99 75.2211 Z" fill="#000000" fill-rule="nonzero" fill-opacity="1" /><path clip-path="url(#clip790)" d="M1107.22 67.2282 Q1107.22 60.096 1115.62 56.325 Q1120.66 53.9066 1131.07 53.2918 L1131.07 50.2176 Q1131.07 45.012 1128.33 42.2657 Q1125.62 39.4784 1122.18 39.4784 Q1116.03 39.4784 1113.08 43.3314 Q1115.58 43.4134 1116.48 44.6841 Q1117.38 45.9137 1117.38 47.1844 Q1117.38 48.865 1116.32 49.9717 Q1115.29 51.0374 1113.53 51.0374 Q1111.85 51.0374 1110.74 50.0127 Q1109.64 48.9469 1109.64 47.1024 Q1109.64 43.0035 1113.33 40.2982 Q1117.06 37.5929 1122.34 37.5929 Q1129.23 37.5929 1133.82 42.2247 Q1135.25 43.6593 1135.95 45.5038 Q1136.69 47.3484 1136.77 48.578 Q1136.85 49.7667 1136.85 52.1441 L1136.85 68.9087 Q1136.85 69.4006 1137.02 70.2204 Q1137.18 71.0402 1137.92 72.1059 Q1138.7 73.1306 1139.97 73.1306 Q1143 73.1306 1142.96 67.761 L1142.96 63.0472 L1145.09 63.0472 L1145.09 67.761 Q1145.09 72.2288 1142.71 73.9914 Q1140.38 75.7129 1138.21 75.7129 Q1135.42 75.7129 1133.66 73.6635 Q1131.89 71.614 1131.65 68.8267 Q1130.38 72.0239 1127.47 74.1144 Q1124.6 76.1638 1120.66 76.1638 Q1117.63 76.1638 1114.76 75.385 Q1111.93 74.6472 1109.55 72.5568 Q1107.22 70.4253 1107.22 67.2282 M1113.69 67.1462 Q1113.69 70.2614 1115.91 72.2698 Q1118.12 74.2783 1121.24 74.2783 Q1124.76 74.2783 1127.92 71.573 Q1131.07 68.8267 1131.07 63.4571 L1131.07 55.0543 Q1121.77 55.3823 1117.71 59.1123 Q1113.69 62.8013 1113.69 67.1462 Z" fill="#000000" fill-rule="nonzero" fill-opacity="1" /><path clip-path="url(#clip790)" d="M1146.77 75.2211 L1146.77 72.6387 Q1151.24 72.6387 1152.26 72.1059 Q1153.29 71.532 1153.29 68.8267 L1153.29 46.2416 Q1153.29 43.1265 1152.22 42.3887 Q1151.2 41.6508 1147.1 41.6508 L1147.1 39.0275 L1158.82 38.1258 L1158.82 68.9087 Q1158.82 71.4091 1159.72 72.0239 Q1160.63 72.6387 1164.73 72.6387 L1164.73 75.2211 Q1156.16 74.9751 1155.99 74.9751 Q1154.85 74.9751 1146.77 75.2211 M1150.3 23.4926 Q1150.3 21.812 1151.57 20.4594 Q1152.88 19.0658 1154.72 19.0658 Q1156.57 19.0658 1157.88 20.3364 Q1159.19 21.5661 1159.19 23.5336 Q1159.19 25.4601 1157.88 26.7307 Q1156.57 27.9604 1154.72 27.9604 Q1152.8 27.9604 1151.53 26.6078 Q1150.3 25.2551 1150.3 23.4926 Z" fill="#000000" fill-rule="nonzero" fill-opacity="1" /><path clip-path="url(#clip790)" d="M1170.46 75.2211 L1170.46 72.6387 Q1174.93 72.6387 1175.95 72.1059 Q1176.98 71.532 1176.98 68.8267 L1176.98 46.3236 Q1176.98 43.2084 1175.87 42.4296 Q1174.81 41.6508 1170.46 41.6508 L1170.46 39.0275 L1182.27 38.1258 L1182.27 46.9385 Q1186.2 38.1258 1194.69 38.1258 Q1201 38.1258 1203.5 41.241 Q1205.34 43.3314 1205.71 45.6678 Q1206.12 48.0042 1206.12 54.0706 L1206.12 70.0974 Q1206.2 71.8599 1207.56 72.2698 Q1208.91 72.6387 1212.68 72.6387 L1212.68 75.2211 Q1204.11 74.9751 1203.25 74.9751 Q1202.6 74.9751 1193.79 75.2211 L1193.79 72.6387 Q1198.25 72.6387 1199.28 72.1059 Q1200.34 71.532 1200.34 68.8267 L1200.34 49.2748 Q1200.34 45.012 1199.03 42.5116 Q1197.72 39.9703 1194.11 39.9703 Q1189.77 39.9703 1186.28 43.6183 Q1182.8 47.2664 1182.8 53.4148 L1182.8 68.8267 Q1182.8 71.532 1183.82 72.1059 Q1184.89 72.6387 1189.32 72.6387 L1189.32 75.2211 Q1180.75 74.9751 1179.93 74.9751 Q1179.27 74.9751 1170.46 75.2211 Z" fill="#000000" fill-rule="nonzero" fill-opacity="1" /><path clip-path="url(#clip790)" d="M1238.76 41.6508 L1238.76 39.0275 Q1243.31 39.2735 1246.55 39.2735 Q1248.15 39.2735 1255.73 39.0275 L1255.73 41.6508 Q1250.77 41.6508 1250.77 43.9053 Q1250.77 44.3971 1251.18 45.4219 L1259.17 67.843 L1266.39 47.5123 Q1264.87 43.4134 1264.46 42.9215 Q1263.44 41.6508 1259.17 41.6508 L1259.17 39.0275 Q1262.94 39.2735 1266.63 39.2735 Q1268.07 39.2735 1275.36 39.0275 L1275.36 41.6508 Q1270.4 41.6508 1270.4 43.9053 Q1270.4 44.2332 1270.81 45.5038 L1279.13 68.9087 L1286.76 47.4303 Q1287.17 46.3236 1287.21 45.6678 Q1287.21 43.8233 1285.9 42.7985 Q1284.59 41.7328 1282.33 41.6508 L1282.33 39.0275 Q1287.13 39.2735 1290.12 39.2735 Q1293.48 39.2735 1296.27 39.0275 L1296.27 41.6508 Q1291.06 41.8148 1289.22 47.0204 L1279.38 74.5652 Q1278.44 76.0818 1277.7 76.1638 Q1276.59 76.1638 1276.02 74.5652 L1267.45 50.7095 L1258.97 74.4833 Q1258.64 75.508 1258.35 75.8359 Q1258.07 76.1638 1257.29 76.1638 Q1256.55 76.1638 1256.22 75.7129 Q1255.89 75.303 1255.53 74.2783 L1244.95 44.5611 Q1244.21 42.6346 1243.11 42.1427 Q1242.04 41.6508 1238.76 41.6508 Z" fill="#000000" fill-rule="nonzero" fill-opacity="1" /><path clip-path="url(#clip790)" d="M1301.75 67.2282 Q1301.75 60.096 1310.15 56.325 Q1315.19 53.9066 1325.6 53.2918 L1325.6 50.2176 Q1325.6 45.012 1322.86 42.2657 Q1320.15 39.4784 1316.71 39.4784 Q1310.56 39.4784 1307.61 43.3314 Q1310.11 43.4134 1311.01 44.6841 Q1311.91 45.9137 1311.91 47.1844 Q1311.91 48.865 1310.85 49.9717 Q1309.82 51.0374 1308.06 51.0374 Q1306.38 51.0374 1305.27 50.0127 Q1304.16 48.9469 1304.16 47.1024 Q1304.16 43.0035 1307.85 40.2982 Q1311.58 37.5929 1316.87 37.5929 Q1323.76 37.5929 1328.35 42.2247 Q1329.78 43.6593 1330.48 45.5038 Q1331.22 47.3484 1331.3 48.578 Q1331.38 49.7667 1331.38 52.1441 L1331.38 68.9087 Q1331.38 69.4006 1331.55 70.2204 Q1331.71 71.0402 1332.45 72.1059 Q1333.23 73.1306 1334.5 73.1306 Q1337.53 73.1306 1337.49 67.761 L1337.49 63.0472 L1339.62 63.0472 L1339.62 67.761 Q1339.62 72.2288 1337.24 73.9914 Q1334.91 75.7129 1332.73 75.7129 Q1329.95 75.7129 1328.18 73.6635 Q1326.42 71.614 1326.18 68.8267 Q1324.91 72.0239 1322 74.1144 Q1319.13 76.1638 1315.19 76.1638 Q1312.16 76.1638 1309.29 75.385 Q1306.46 74.6472 1304.08 72.5568 Q1301.75 70.4253 1301.75 67.2282 M1308.22 67.1462 Q1308.22 70.2614 1310.44 72.2698 Q1312.65 74.2783 1315.76 74.2783 Q1319.29 74.2783 1322.45 71.573 Q1325.6 68.8267 1325.6 63.4571 L1325.6 55.0543 Q1316.3 55.3823 1312.24 59.1123 Q1308.22 62.8013 1308.22 67.1462 Z" fill="#000000" fill-rule="nonzero" fill-opacity="1" /><path clip-path="url(#clip790)" d="M1342.98 75.2211 L1342.98 72.6387 Q1347.45 72.6387 1348.47 72.1059 Q1349.5 71.532 1349.5 68.8267 L1349.5 25.1732 Q1349.5 22.058 1348.39 21.2792 Q1347.33 20.5004 1342.98 20.5004 L1342.98 17.8771 L1355.03 16.9753 L1355.03 68.8267 Q1355.03 71.532 1356.1 72.1059 Q1357.16 72.6387 1361.59 72.6387 L1361.59 75.2211 Q1360.57 75.2211 1358.43 75.1391 Q1356.3 75.0571 1354.74 75.0161 Q1353.19 74.9751 1352.29 74.9751 Q1351.3 74.9751 1342.98 75.2211 Z" fill="#000000" fill-rule="nonzero" fill-opacity="1" /><path clip-path="url(#clip790)" d="M1367.01 75.2211 L1367.01 72.6387 Q1371.47 72.6387 1372.5 72.1059 Q1373.52 71.532 1373.52 68.8267 L1373.52 25.1732 Q1373.52 22.058 1372.42 21.2792 Q1371.35 20.5004 1367.01 20.5004 L1367.01 17.8771 L1379.06 16.9753 L1379.06 68.8267 Q1379.06 71.532 1380.12 72.1059 Q1381.19 72.6387 1385.62 72.6387 L1385.62 75.2211 Q1384.59 75.2211 1382.46 75.1391 Q1380.33 75.0571 1378.77 75.0161 Q1377.21 74.9751 1376.31 74.9751 Q1375.33 74.9751 1367.01 75.2211 Z" fill="#000000" fill-rule="nonzero" fill-opacity="1" /><path clip-path="url(#clip790)" d="M1412.21 57.1858 Q1412.21 49.1929 1417.78 43.6593 Q1423.35 38.1258 1430.9 38.1258 Q1437.29 38.1258 1441.47 43.3314 L1441.47 25.1732 Q1441.47 22.058 1440.37 21.2792 Q1439.3 20.5004 1434.95 20.5004 L1434.95 17.8771 L1447.05 16.9753 L1447.05 67.925 Q1447.05 71.0402 1448.11 71.8599 Q1449.22 72.6387 1453.56 72.6387 L1453.56 75.2211 L1441.23 76.1638 L1441.23 70.5893 Q1436.88 76.1228 1430 76.1638 Q1422.78 76.1638 1417.49 70.6303 Q1412.21 65.0967 1412.21 57.1858 M1419.17 57.2678 Q1419.17 65.0557 1421.59 68.9087 Q1424.95 74.2783 1430.4 74.2783 Q1436.64 74.2783 1440.32 68.4168 Q1441.27 66.9822 1441.23 65.3017 L1441.23 48.0862 Q1441.23 46.4056 1440.32 45.012 Q1436.88 39.9703 1431.27 39.9703 Q1425.4 39.9703 1421.76 45.3399 Q1419.17 49.3568 1419.17 57.2678 Z" fill="#000000" fill-rule="nonzero" fill-opacity="1" /><path clip-path="url(#clip790)" d="M1458.66 56.7349 Q1458.66 48.824 1463.74 43.2084 Q1468.82 37.5929 1476.12 37.5929 Q1483.5 37.5929 1487.31 42.3887 Q1491.16 47.1844 1491.16 54.0706 Q1491.16 55.3413 1490.84 55.5872 Q1490.51 55.8331 1489.07 55.8331 L1465.63 55.8331 Q1465.63 64.3999 1468.17 68.4168 Q1471.69 74.0324 1477.64 74.0324 Q1478.46 74.0324 1479.44 73.8684 Q1480.42 73.7045 1482.43 73.0076 Q1484.44 72.2698 1486.2 70.3433 Q1487.97 68.4168 1488.99 65.3836 Q1489.24 64.1949 1490.06 64.2359 Q1491.16 64.2359 1491.16 65.2197 Q1491.16 65.9575 1490.34 67.638 Q1489.56 69.2776 1488.05 71.2451 Q1486.53 73.2126 1483.58 74.6882 Q1480.67 76.1638 1477.14 76.1638 Q1469.77 76.1638 1464.19 70.5893 Q1458.66 64.9737 1458.66 56.7349 M1465.71 54.0706 L1485.63 54.0706 Q1485.63 52.3081 1485.3 50.3406 Q1485.01 48.3731 1484.11 45.6678 Q1483.25 42.9215 1481.2 41.2 Q1479.15 39.4784 1476.12 39.4784 Q1474.77 39.4784 1473.29 40.0523 Q1471.86 40.6261 1470.09 42.0197 Q1468.33 43.4134 1467.1 46.5696 Q1465.87 49.7257 1465.71 54.0706 Z" fill="#000000" fill-rule="nonzero" fill-opacity="1" /><path clip-path="url(#clip790)" d="M1493.88 75.2211 L1493.88 72.6387 Q1498.35 72.6387 1499.37 72.1059 Q1500.4 71.532 1500.4 68.8267 L1500.4 46.3236 Q1500.4 43.2084 1499.29 42.4296 Q1498.23 41.6508 1493.88 41.6508 L1493.88 39.0275 L1505.69 38.1258 L1505.69 46.9385 Q1509.62 38.1258 1518.11 38.1258 Q1524.42 38.1258 1526.92 41.241 Q1528.76 43.3314 1529.13 45.6678 Q1529.54 48.0042 1529.54 54.0706 L1529.54 70.0974 Q1529.62 71.8599 1530.98 72.2698 Q1532.33 72.6387 1536.1 72.6387 L1536.1 75.2211 Q1527.53 74.9751 1526.67 74.9751 Q1526.02 74.9751 1517.2 75.2211 L1517.2 72.6387 Q1521.67 72.6387 1522.7 72.1059 Q1523.76 71.532 1523.76 68.8267 L1523.76 49.2748 Q1523.76 45.012 1522.45 42.5116 Q1521.14 39.9703 1517.53 39.9703 Q1513.19 39.9703 1509.7 43.6183 Q1506.22 47.2664 1506.22 53.4148 L1506.22 68.8267 Q1506.22 71.532 1507.24 72.1059 Q1508.31 72.6387 1512.74 72.6387 L1512.74 75.2211 Q1504.17 74.9751 1503.35 74.9751 Q1502.69 74.9751 1493.88 75.2211 Z" fill="#000000" fill-rule="nonzero" fill-opacity="1" /><path clip-path="url(#clip790)" d="M1542.35 74.1144 L1542.35 63.0472 Q1542.35 62.1045 1542.39 61.7766 Q1542.43 61.4487 1542.68 61.2027 Q1542.92 60.9568 1543.42 60.9568 Q1543.99 60.9568 1544.19 61.2027 Q1544.44 61.4487 1544.6 62.3914 Q1545.87 68.1709 1548.58 71.2451 Q1551.33 74.2783 1556.29 74.2783 Q1561 74.2783 1563.38 72.1879 Q1565.75 70.0974 1565.75 66.6543 Q1565.75 60.5059 1557.02 58.9483 Q1551.98 57.9236 1549.89 57.2678 Q1547.8 56.5709 1545.96 55.0543 Q1542.35 52.1031 1542.35 47.9222 Q1542.35 43.7413 1545.51 40.6671 Q1548.7 37.5929 1555.75 37.5929 Q1560.47 37.5929 1563.66 39.9703 Q1564.61 39.2325 1565.1 38.6176 Q1566.21 37.5929 1566.78 37.5929 Q1567.44 37.5929 1567.56 38.0438 Q1567.68 38.4537 1567.68 39.6424 L1567.68 48.0862 Q1567.68 49.0289 1567.64 49.3568 Q1567.6 49.6847 1567.35 49.9307 Q1567.11 50.1356 1566.57 50.1356 Q1565.63 50.1356 1565.59 49.3568 Q1564.93 39.1915 1555.75 39.1915 Q1550.79 39.1915 1548.58 41.118 Q1546.37 43.0035 1546.37 45.5858 Q1546.37 47.0204 1547.02 48.1271 Q1547.72 49.1929 1548.58 49.8487 Q1549.48 50.4635 1551.12 51.0784 Q1552.76 51.6522 1553.74 51.8572 Q1554.77 52.0621 1556.7 52.472 Q1563.42 53.7427 1566.25 56.489 Q1569.77 60.014 1569.77 64.4819 Q1569.77 69.4416 1566.41 72.8027 Q1563.05 76.1638 1556.29 76.1638 Q1550.83 76.1638 1547.02 72.5158 Q1546.53 73.0076 1546.16 73.4585 Q1545.79 73.8684 1545.63 74.0324 Q1545.51 74.1963 1545.46 74.3193 Q1545.42 74.4013 1545.34 74.4833 Q1543.66 76.1638 1543.25 76.1638 Q1542.6 76.1638 1542.47 75.7129 Q1542.35 75.303 1542.35 74.1144 Z" fill="#000000" fill-rule="nonzero" fill-opacity="1" /><path clip-path="url(#clip790)" d="M1573.05 75.2211 L1573.05 72.6387 Q1577.52 72.6387 1578.55 72.1059 Q1579.57 71.532 1579.57 68.8267 L1579.57 46.2416 Q1579.57 43.1265 1578.51 42.3887 Q1577.48 41.6508 1573.38 41.6508 L1573.38 39.0275 L1585.1 38.1258 L1585.1 68.9087 Q1585.1 71.4091 1586.01 72.0239 Q1586.91 72.6387 1591.01 72.6387 L1591.01 75.2211 Q1582.44 74.9751 1582.28 74.9751 Q1581.13 74.9751 1573.05 75.2211 M1576.58 23.4926 Q1576.58 21.812 1577.85 20.4594 Q1579.16 19.0658 1581.01 19.0658 Q1582.85 19.0658 1584.16 20.3364 Q1585.47 21.5661 1585.47 23.5336 Q1585.47 25.4601 1584.16 26.7307 Q1582.85 27.9604 1581.01 27.9604 Q1579.08 27.9604 1577.81 26.6078 Q1576.58 25.2551 1576.58 23.4926 Z" fill="#000000" fill-rule="nonzero" fill-opacity="1" /><path clip-path="url(#clip790)" d="M1596.74 41.6508 L1596.74 39.8063 Q1600.6 39.6424 1603.14 36.9371 Q1605.72 34.1908 1606.58 30.8297 Q1607.48 27.4686 1607.57 23.5746 L1609.66 23.5746 L1609.66 39.0275 L1621.67 39.0275 L1621.67 41.6508 L1609.66 41.6508 L1609.66 64.9737 Q1609.66 74.0324 1615.31 74.0324 Q1617.73 74.0324 1619.33 71.573 Q1620.93 69.0727 1620.93 64.6458 L1620.93 60.014 L1623.02 60.014 L1623.02 64.8098 Q1623.02 69.3596 1620.93 72.7617 Q1618.84 76.1638 1614.7 76.1638 Q1613.18 76.1638 1611.66 75.7539 Q1610.19 75.385 1608.22 74.4013 Q1606.29 73.3765 1605.06 70.9172 Q1603.88 68.4168 1603.88 64.8098 L1603.88 41.6508 L1596.74 41.6508 Z" fill="#000000" fill-rule="nonzero" fill-opacity="1" /><path clip-path="url(#clip790)" d="M1628.31 85.6323 Q1628.31 83.8698 1629.33 82.927 Q1630.4 82.0253 1631.83 82.0253 Q1633.35 82.0253 1634.33 82.968 Q1635.36 83.9518 1635.36 85.5504 Q1635.36 88.6655 1632.08 89.0754 Q1633.67 90.592 1636.01 90.592 Q1638.51 90.592 1640.52 88.7475 Q1642.57 86.903 1643.43 85.1405 Q1644.33 83.3779 1645.6 80.1808 Q1646.79 77.6804 1647.69 75.2211 L1635.11 44.5611 Q1634.29 42.5526 1633.02 42.1017 Q1631.75 41.6508 1628.31 41.6508 L1628.31 39.0275 Q1632.08 39.2735 1636.46 39.2735 Q1639.04 39.2735 1645.6 39.0275 L1645.6 41.6508 Q1640.89 41.6508 1640.89 43.8233 Q1640.89 44.0692 1641.38 45.3399 L1650.73 67.925 L1659.21 47.2664 Q1659.7 46.0777 1659.7 45.2579 Q1659.7 41.8148 1655.77 41.6508 L1655.77 39.0275 Q1661.3 39.2735 1663.06 39.2735 Q1666.51 39.2735 1669.34 39.0275 L1669.34 41.6508 Q1663.72 41.6508 1661.55 47.0204 L1646.75 82.8451 Q1642.73 92.3956 1636.01 92.4366 Q1632.81 92.4366 1630.56 90.4691 Q1628.31 88.5016 1628.31 85.6323 Z" fill="#000000" fill-rule="nonzero" fill-opacity="1" /><path clip-path="url(#clip790)" d="M1694.29 54.2346 Q1694.29 40.0523 1699.58 28.6163 Q1701.83 23.8205 1704.99 19.8036 Q1708.14 15.7866 1710.23 14.0241 Q1712.32 12.2615 1712.9 12.2615 Q1713.72 12.2615 1713.76 13.0813 Q1713.76 13.4912 1712.65 14.5159 Q1699.13 28.2883 1699.17 54.2346 Q1699.17 80.2627 1712.32 93.5023 Q1713.76 94.9369 1713.76 95.3878 Q1713.76 96.2076 1712.9 96.2076 Q1712.32 96.2076 1710.32 94.527 Q1708.31 92.8465 1705.19 88.9935 Q1702.08 85.1405 1699.82 80.4267 Q1694.29 68.9907 1694.29 54.2346 Z" fill="#000000" fill-rule="nonzero" fill-opacity="1" /><path clip-path="url(#clip790)" d="M1721.82 46.7745 Q1721.82 33.9449 1730.02 25.0092 Q1738.26 16.0325 1749.69 16.0325 Q1761.21 16.0325 1769.41 25.0092 Q1777.65 33.9858 1777.65 46.7745 Q1777.65 59.4402 1769.41 68.2529 Q1761.17 77.0656 1749.69 77.0656 Q1738.38 77.0656 1730.1 68.2939 Q1721.82 59.5222 1721.82 46.7745 M1730.47 45.5858 Q1730.47 53.3738 1732.31 59.3582 Q1734.16 65.3017 1737.11 68.5398 Q1740.1 71.778 1743.3 73.3356 Q1746.49 74.8931 1749.77 74.8931 Q1752.97 74.8931 1756.09 73.3765 Q1759.24 71.8599 1762.23 68.6628 Q1765.23 65.4656 1767.11 59.4812 Q1769 53.4967 1769 45.5858 Q1769 39.4374 1767.69 34.5187 Q1766.37 29.559 1764.32 26.5668 Q1762.28 23.5746 1759.61 21.6071 Q1756.99 19.6396 1754.49 18.9018 Q1752.03 18.123 1749.69 18.123 Q1746.74 18.123 1743.67 19.4347 Q1740.59 20.7463 1737.48 23.6566 Q1734.4 26.5258 1732.43 32.2233 Q1730.47 37.8798 1730.47 45.5858 Z" fill="#000000" fill-rule="nonzero" fill-opacity="1" /><path clip-path="url(#clip790)" d="M1787.41 75.2211 L1787.41 72.6387 L1789.42 72.6387 Q1793.97 72.6387 1795 71.9009 Q1796.06 71.1221 1796.06 68.6628 L1796.06 24.4353 Q1796.06 22.017 1795 21.2792 Q1793.93 20.5004 1789.42 20.5004 L1787.41 20.5004 L1787.41 17.8771 L1818.12 17.8771 Q1826.11 17.8771 1831.44 22.1809 Q1836.77 26.4438 1836.77 32.0594 Q1836.77 36.6911 1832.83 40.3802 Q1828.94 44.0692 1822.83 45.2579 Q1829.8 45.9957 1834.39 50.2176 Q1839.02 54.3985 1839.02 59.8501 Q1839.02 65.9985 1833.73 70.6303 Q1828.45 75.2211 1820.33 75.2211 L1787.41 75.2211 M1803.03 69.2776 Q1803.03 71.45 1803.65 72.0649 Q1804.26 72.6387 1807.13 72.6387 L1817.62 72.6387 Q1823.65 72.6387 1827.13 68.7038 Q1830.62 64.7278 1830.62 59.7681 Q1830.62 54.8084 1827.54 50.5865 Q1824.51 46.3236 1818.81 46.3236 L1803.03 46.3236 L1803.03 69.2776 M1803.03 44.4791 L1815.21 44.4791 Q1821.68 44.4791 1825.13 40.5851 Q1828.61 36.6911 1828.61 32.0594 Q1828.61 27.9604 1825.82 24.2304 Q1823.08 20.5004 1817.54 20.5004 L1807.13 20.5004 Q1804.26 20.5004 1803.65 21.0742 Q1803.03 21.6481 1803.03 23.8615 L1803.03 44.4791 Z" fill="#000000" fill-rule="nonzero" fill-opacity="1" /><path clip-path="url(#clip790)" d="M1848.93 46.5286 Q1848.93 33.8629 1857.58 24.9682 Q1866.22 16.0325 1878.11 16.0325 Q1881.8 16.0325 1885.08 17.3852 Q1888.36 18.7378 1889.87 19.9265 Q1891.39 21.0742 1893.56 23.2467 L1897.79 17.0573 Q1898.44 16.0325 1899.1 16.0325 Q1899.79 16.0325 1899.92 16.4424 Q1900.04 16.8113 1900.04 18.041 L1900.04 37.9618 Q1900.04 39.3145 1899.88 39.6424 Q1899.71 39.9703 1898.69 39.9703 Q1897.87 39.9703 1897.66 39.7243 Q1897.5 39.4784 1897.33 38.5357 Q1896.06 29.477 1891.02 24.0664 Q1886.02 18.6559 1879.05 18.6559 Q1877.05 18.6559 1874.79 19.1067 Q1872.58 19.5576 1869.34 21.2792 Q1866.14 23.0007 1863.64 25.87 Q1861.18 28.6982 1859.38 34.1088 Q1857.58 39.4784 1857.58 46.6105 Q1857.58 53.6607 1859.38 59.0713 Q1861.18 64.4819 1863.64 67.3101 Q1866.14 70.0974 1869.34 71.819 Q1872.58 73.5405 1874.83 74.0324 Q1877.13 74.4833 1879.14 74.4833 Q1886.35 74.4833 1891.88 69.3596 Q1897.42 64.2359 1897.95 55.5872 Q1898.03 55.1773 1898.03 55.0133 Q1898.03 54.8084 1898.11 54.6035 Q1898.2 54.3985 1898.4 54.3165 Q1898.61 54.2346 1898.93 54.2346 Q1900.04 54.2346 1900.04 55.6692 Q1900.04 63.6621 1893.89 70.3843 Q1887.78 77.0656 1878.11 77.0656 Q1866.18 77.0656 1857.53 68.2119 Q1848.93 59.3582 1848.93 46.5286 Z" fill="#000000" fill-rule="nonzero" fill-opacity="1" /><path clip-path="url(#clip790)" d="M1915.65 95.3878 Q1915.65 94.9779 1916.71 93.9532 Q1930.24 80.1808 1930.24 54.2346 Q1930.24 28.2064 1917.25 15.0488 Q1915.65 13.5322 1915.65 13.0813 Q1915.65 12.2615 1916.47 12.2615 Q1917.04 12.2615 1919.05 13.9421 Q1921.1 15.6227 1924.17 19.4756 Q1927.29 23.3286 1929.58 28.0424 Q1935.12 39.4784 1935.12 54.2346 Q1935.12 68.4168 1929.83 79.8529 Q1927.58 84.6486 1924.42 88.6655 Q1921.26 92.6825 1919.17 94.445 Q1917.08 96.2076 1916.47 96.2076 Q1915.65 96.2076 1915.65 95.3878 Z" fill="#000000" fill-rule="nonzero" fill-opacity="1" /><polyline clip-path="url(#clip792)" style="stroke:#800080; stroke-linecap:round; stroke-linejoin:round; stroke-width:8; stroke-opacity:1; fill:none" points="280.231,160.256 285.261,178.629 290.292,232.937 295.322,320.706 300.353,437.668 305.383,577.637 310.413,732.493 315.444,892.376 320.474,1046.18 325.505,1182.37 330.535,1290.03 335.565,1360.09 340.596,1386.4 345.626,1366.56 350.657,1302.34 355.687,1199.41 360.717,1066.72 365.748,915.422 370.778,757.582 375.809,604.993 380.839,468.174 385.869,355.697 390.9,273.855 395.93,226.616 400.961,215.748 405.991,241.021 411.021,300.378 416.052,390.056 421.082,504.646 426.113,637.16 431.143,779.187 436.173,921.199 441.204,1053.09 446.234,1164.92 451.265,1247.81 456.295,1294.92 461.325,1302.21 466.356,1269.05 471.386,1198.37 476.417,1096.32 481.447,971.652 486.477,834.709 491.508,696.341 496.538,566.876 501.569,455.287 506.599,368.636 511.629,311.818 516.66,287.528 521.69,296.395 526.721,337.17 531.751,406.906 536.781,501.118 541.812,613.903 546.842,738.105 551.873,865.559 556.903,987.477 561.933,1095.01 566.964,1179.92 571.994,1235.4 577.025,1256.78 582.055,1242.11 587.085,1192.49 592.116,1111.99 597.146,1007.3 602.177,886.987 607.207,760.623 612.237,637.83 617.268,527.427 622.298,436.774 627.329,371.359 632.359,334.635 637.389,328.04 642.42,351.152 647.45,401.88 652.481,476.656 657.511,570.606 662.541,677.714 667.572,791.025 672.602,902.931 677.633,1005.58 682.663,1091.42 687.693,1153.82 692.724,1187.73 697.754,1190.26 702.785,1161.07 707.815,1102.54 712.845,1019.54 717.876,918.961 722.906,809.048 727.937,698.522 732.967,595.766 737.997,508.116 743.028,441.335 748.058,399.335 753.089,384.095 758.119,395.758 763.149,432.811 768.18,492.313 773.21,570.12 778.241,661.083 783.271,759.263 788.301,858.17 793.332,951.066 798.362,1031.36 803.393,1093.11 808.423,1131.47 813.453,1143.3 818.484,1127.45 823.514,1085.05 828.545,1019.48 833.575,936.045 838.605,841.542 843.636,743.545 848.666,649.694 853.697,567.004 858.727,501.296 863.757,456.811 868.788,436.021 873.818,439.62 878.849,466.643 883.879,514.674 888.909,580.084 893.94,658.281 898.97,743.95 904.001,831.316 909.031,914.42 914.061,987.458 919.092,1045.15 924.122,1083.17 929.153,1098.52 934.183,1089.88 939.213,1057.8 944.244,1004.76 949.274,934.966 954.305,854.01 959.335,768.332 964.365,684.632 969.396,609.256 974.426,547.665 979.457,504.035 984.487,481.019 989.517,479.662 994.548,499.469 999.578,538.559 1004.61,593.875 1009.64,661.43 1014.67,736.546 1019.7,814.107 1024.73,888.823 1029.76,955.524 1034.79,1009.47 1039.82,1046.71 1044.85,1064.38 1049.88,1061.04 1054.91,1036.83 1059.94,993.532 1064.97,934.502 1070,864.369 1075.03,788.641 1080.06,713.213 1085.1,643.827 1090.13,585.592 1095.16,542.577 1100.19,517.547 1105.22,511.829 1110.25,525.326 1115.28,556.616 1120.31,603.141 1125.34,661.423 1130.37,727.308 1135.4,796.213 1140.43,863.38 1145.46,924.146 1150.49,974.228 1155.52,1010.01 1160.55,1028.85 1165.58,1029.29 1170.61,1011.24 1175.64,976.071 1180.67,926.514 1185.7,866.465 1190.73,800.657 1195.76,734.241 1200.79,672.324 1205.82,619.531 1210.86,579.627 1215.89,555.25 1220.92,547.765 1225.95,557.248 1230.98,582.57 1236.01,621.564 1241.04,671.234 1246.07,727.984 1251.1,787.847 1256.13,846.719 1261.16,900.576 1266.19,945.71 1271.22,978.96 1276.25,997.935 1281.28,1001.22 1286.31,988.539 1291.34,960.803 1296.37,920.109 1301.4,869.584 1306.43,813.142 1311.46,755.154 1316.49,700.072 1321.52,652.049 1326.55,614.593 1331.58,590.298 1336.62,580.673 1341.65,586.068 1346.68,605.71 1351.71,637.824 1356.74,679.816 1361.77,728.497 1366.8,780.321 1371.83,831.62 1376.86,878.824 1381.89,918.674 1386.92,948.407 1391.95,965.935 1396.98,970.002 1402.01,960.299 1407.04,937.538 1412.07,903.438 1417.1,860.626 1422.13,812.448 1427.16,762.687 1432.19,715.243 1437.22,673.78 1442.25,641.418 1447.28,620.477 1452.31,612.314 1457.34,617.253 1462.38,634.611 1467.41,662.809 1472.44,699.53 1477.47,741.929 1482.5,786.85 1487.53,831.058 1492.56,871.445 1497.59,905.225 1502.62,930.103 1507.65,944.409 1512.68,947.203 1517.71,938.34 1522.74,918.488 1527.77,889.111 1532.8,852.38 1537.83,811.037 1542.86,768.204 1547.89,727.142 1552.92,690.987 1557.95,662.49 1562.98,643.779 1568.01,636.178 1573.04,640.111 1578.07,655.076 1583.1,679.719 1588.14,711.968 1593.17,749.23 1598.2,788.612 1603.23,827.152 1608.26,862.041 1613.29,890.811 1618.32,911.499 1623.35,922.756 1628.38,923.924 1633.41,915.064 1638.44,896.939 1643.47,870.959 1648.5,839.085 1653.53,803.691 1658.56,767.406 1663.59,732.923 1668.62,702.81 1673.65,679.311 1678.68,664.178 1683.71,658.524 1688.74,662.73 1693.77,676.406 1698.8,698.422 1703.83,726.995 1708.86,759.846 1713.9,794.389 1718.93,827.956 1723.96,858.01 1728.99,882.352 1734.02,899.279 1739.05,907.697 1744.08,907.179 1749.11,897.969 1754.14,880.934 1759.17,857.478 1764.2,829.418 1769.23,798.853 1774.26,768.007 1779.29,739.086 1784.32,714.134 1789.35,694.906 1794.38,682.754 1799.41,678.539 1804.44,682.557 1809.47,694.501 1814.5,713.465 1819.53,737.987 1824.56,766.145 1829.59,795.709 1834.62,824.32 1839.66,849.705 1844.69,869.873 1849.72,883.296 1854.75,889.04 1859.78,886.823 1864.81,877.023 1869.84,860.615 1874.87,839.053 1879.9,814.131 1884.93,787.816 1889.96,762.093 1894.99,738.82 1900.02,719.614 1905.05,705.77 1910.08,698.2 1915.11,697.394 1920.14,703.405 1925.17,715.827 1930.2,733.798 1935.23,756.026 1940.26,780.842 1945.29,806.308 1950.32,830.366 1955.35,851.025 1960.38,866.558 1965.42,875.689 1970.45,877.725 1975.48,872.627 1980.51,860.997 1985.54,843.989 1990.57,823.176 1995.6,800.366 2000.63,777.428 2005.66,756.122 2010.69,737.968 2015.72,724.158 2020.75,715.514 2025.78,712.472 2030.81,715.11 2035.84,723.166 2040.87,736.069 2045.9,752.954 2050.93,772.676 2055.96,793.835 2060.99,814.828 2066.02,833.943 2071.05,849.501 2076.08,860.031 2081.11,864.457 2086.14,862.256 2091.18,853.548 2096.21,839.114 2101.24,820.309 2106.27,798.9 2111.3,776.86 2116.33,756.136 2121.36,738.45 2126.39,725.142 2131.42,717.081 2136.45,714.647 2141.48,717.762 2146.51,725.975 2151.54,738.547 2156.57,754.541 2161.6,772.887 2166.63,792.417 2171.66,811.885 2176.69,829.977 2181.72,845.35 2186.75,856.704 2191.78,862.901 2196.81,863.117 2201.84,856.999 2206.87,844.79 2211.9,827.379 2216.94,806.258 2221.97,783.38 2227,760.93 2232.03,741.067 2237.06,725.651 2242.09,716.036 2247.12,712.934 2252.15,716.38 2257.18,725.789 2262.21,740.091 2267.24,757.904 2272.27,777.715 2277.3,798.038 2282.33,817.515 2287.36,834.97 2292.39,849.401 "/>
</svg>
