<?xml version="1.0" encoding="utf-8"?>
<svg xmlns="http://www.w3.org/2000/svg" xmlns:xlink="http://www.w3.org/1999/xlink" width="600" height="400" viewBox="0 0 2400 1600">
<defs>
  <clipPath id="clip690">
    <rect x="0" y="0" width="2400" height="1600"/>
  </clipPath>
</defs>
<path clip-path="url(#clip690)" d="M0 1600 L2400 1600 L2400 8.88178e-14 L0 8.88178e-14  Z" fill="#ffffff" fill-rule="evenodd" fill-opacity="1"/>
<defs>
  <clipPath id="clip691">
    <rect x="480" y="0" width="1681" height="1600"/>
  </clipPath>
</defs>
<path clip-path="url(#clip690)" d="M219.033 1423.18 L2352.76 1423.18 L2352.76 47.2441 L219.033 47.2441  Z" fill="#ffffff" fill-rule="evenodd" fill-opacity="1"/>
<defs>
  <clipPath id="clip692">
    <rect x="219" y="47" width="2135" height="1377"/>
  </clipPath>
</defs>
<polyline clip-path="url(#clip692)" style="stroke:#000000; stroke-linecap:round; stroke-linejoin:round; stroke-width:2; stroke-opacity:0.1; fill:none" points="337.573,1423.18 337.573,47.2441 "/>
<polyline clip-path="url(#clip692)" style="stroke:#000000; stroke-linecap:round; stroke-linejoin:round; stroke-width:2; stroke-opacity:0.1; fill:none" points="930.274,1423.18 930.274,47.2441 "/>
<polyline clip-path="url(#clip692)" style="stroke:#000000; stroke-linecap:round; stroke-linejoin:round; stroke-width:2; stroke-opacity:0.1; fill:none" points="1522.97,1423.18 1522.97,47.2441 "/>
<polyline clip-path="url(#clip692)" style="stroke:#000000; stroke-linecap:round; stroke-linejoin:round; stroke-width:2; stroke-opacity:0.1; fill:none" points="2115.68,1423.18 2115.68,47.2441 "/>
<polyline clip-path="url(#clip692)" style="stroke:#000000; stroke-linecap:round; stroke-linejoin:round; stroke-width:2; stroke-opacity:0.1; fill:none" points="337.573,1423.18 337.573,47.2441 "/>
<polyline clip-path="url(#clip692)" style="stroke:#000000; stroke-linecap:round; stroke-linejoin:round; stroke-width:2; stroke-opacity:0.1; fill:none" points="930.274,1423.18 930.274,47.2441 "/>
<polyline clip-path="url(#clip692)" style="stroke:#000000; stroke-linecap:round; stroke-linejoin:round; stroke-width:2; stroke-opacity:0.1; fill:none" points="1522.97,1423.18 1522.97,47.2441 "/>
<polyline clip-path="url(#clip692)" style="stroke:#000000; stroke-linecap:round; stroke-linejoin:round; stroke-width:2; stroke-opacity:0.1; fill:none" points="2115.68,1423.18 2115.68,47.2441 "/>
<polyline clip-path="url(#clip692)" style="stroke:#000000; stroke-linecap:round; stroke-linejoin:round; stroke-width:2; stroke-opacity:0.1; fill:none" points="219.033,1417.34 2352.76,1417.34 "/>
<polyline clip-path="url(#clip692)" style="stroke:#000000; stroke-linecap:round; stroke-linejoin:round; stroke-width:2; stroke-opacity:0.1; fill:none" points="219.033,1188.73 2352.76,1188.73 "/>
<polyline clip-path="url(#clip692)" style="stroke:#000000; stroke-linecap:round; stroke-linejoin:round; stroke-width:2; stroke-opacity:0.1; fill:none" points="219.033,960.116 2352.76,960.116 "/>
<polyline clip-path="url(#clip692)" style="stroke:#000000; stroke-linecap:round; stroke-linejoin:round; stroke-width:2; stroke-opacity:0.1; fill:none" points="219.033,731.503 2352.76,731.503 "/>
<polyline clip-path="url(#clip692)" style="stroke:#000000; stroke-linecap:round; stroke-linejoin:round; stroke-width:2; stroke-opacity:0.1; fill:none" points="219.033,502.891 2352.76,502.891 "/>
<polyline clip-path="url(#clip692)" style="stroke:#000000; stroke-linecap:round; stroke-linejoin:round; stroke-width:2; stroke-opacity:0.1; fill:none" points="219.033,274.278 2352.76,274.278 "/>
<polyline clip-path="url(#clip692)" style="stroke:#000000; stroke-linecap:round; stroke-linejoin:round; stroke-width:2; stroke-opacity:0.1; fill:none" points="219.033,1417.34 2352.76,1417.34 "/>
<polyline clip-path="url(#clip692)" style="stroke:#000000; stroke-linecap:round; stroke-linejoin:round; stroke-width:2; stroke-opacity:0.1; fill:none" points="219.033,1188.73 2352.76,1188.73 "/>
<polyline clip-path="url(#clip692)" style="stroke:#000000; stroke-linecap:round; stroke-linejoin:round; stroke-width:2; stroke-opacity:0.1; fill:none" points="219.033,960.116 2352.76,960.116 "/>
<polyline clip-path="url(#clip692)" style="stroke:#000000; stroke-linecap:round; stroke-linejoin:round; stroke-width:2; stroke-opacity:0.1; fill:none" points="219.033,731.503 2352.76,731.503 "/>
<polyline clip-path="url(#clip692)" style="stroke:#000000; stroke-linecap:round; stroke-linejoin:round; stroke-width:2; stroke-opacity:0.1; fill:none" points="219.033,502.891 2352.76,502.891 "/>
<polyline clip-path="url(#clip692)" style="stroke:#000000; stroke-linecap:round; stroke-linejoin:round; stroke-width:2; stroke-opacity:0.1; fill:none" points="219.033,274.278 2352.76,274.278 "/>
<polyline clip-path="url(#clip690)" style="stroke:#000000; stroke-linecap:round; stroke-linejoin:round; stroke-width:4; stroke-opacity:1; fill:none" points="219.033,1423.18 2352.76,1423.18 "/>
<polyline clip-path="url(#clip690)" style="stroke:#000000; stroke-linecap:round; stroke-linejoin:round; stroke-width:4; stroke-opacity:1; fill:none" points="219.033,47.2441 2352.76,47.2441 "/>
<polyline clip-path="url(#clip690)" style="stroke:#000000; stroke-linecap:round; stroke-linejoin:round; stroke-width:4; stroke-opacity:1; fill:none" points="337.573,1423.18 337.573,1404.28 "/>
<polyline clip-path="url(#clip690)" style="stroke:#000000; stroke-linecap:round; stroke-linejoin:round; stroke-width:4; stroke-opacity:1; fill:none" points="930.274,1423.18 930.274,1404.28 "/>
<polyline clip-path="url(#clip690)" style="stroke:#000000; stroke-linecap:round; stroke-linejoin:round; stroke-width:4; stroke-opacity:1; fill:none" points="1522.97,1423.18 1522.97,1404.28 "/>
<polyline clip-path="url(#clip690)" style="stroke:#000000; stroke-linecap:round; stroke-linejoin:round; stroke-width:4; stroke-opacity:1; fill:none" points="2115.68,1423.18 2115.68,1404.28 "/>
<polyline clip-path="url(#clip690)" style="stroke:#000000; stroke-linecap:round; stroke-linejoin:round; stroke-width:4; stroke-opacity:1; fill:none" points="337.573,47.2441 337.573,66.1417 "/>
<polyline clip-path="url(#clip690)" style="stroke:#000000; stroke-linecap:round; stroke-linejoin:round; stroke-width:4; stroke-opacity:1; fill:none" points="930.274,47.2441 930.274,66.1417 "/>
<polyline clip-path="url(#clip690)" style="stroke:#000000; stroke-linecap:round; stroke-linejoin:round; stroke-width:4; stroke-opacity:1; fill:none" points="1522.97,47.2441 1522.97,66.1417 "/>
<polyline clip-path="url(#clip690)" style="stroke:#000000; stroke-linecap:round; stroke-linejoin:round; stroke-width:4; stroke-opacity:1; fill:none" points="2115.68,47.2441 2115.68,66.1417 "/>
<path clip-path="url(#clip690)" d="M337.573 1454.1 Q333.962 1454.1 332.133 1457.66 Q330.328 1461.2 330.328 1468.33 Q330.328 1475.44 332.133 1479.01 Q333.962 1482.55 337.573 1482.55 Q341.207 1482.55 343.013 1479.01 Q344.842 1475.44 344.842 1468.33 Q344.842 1461.2 343.013 1457.66 Q341.207 1454.1 337.573 1454.1 M337.573 1450.39 Q343.383 1450.39 346.439 1455 Q349.517 1459.58 349.517 1468.33 Q349.517 1477.06 346.439 1481.67 Q343.383 1486.25 337.573 1486.25 Q331.763 1486.25 328.684 1481.67 Q325.629 1477.06 325.629 1468.33 Q325.629 1459.58 328.684 1455 Q331.763 1450.39 337.573 1450.39 Z" fill="#000000" fill-rule="nonzero" fill-opacity="1" /><path clip-path="url(#clip690)" d="M920.552 1451.02 L938.908 1451.02 L938.908 1454.96 L924.834 1454.96 L924.834 1463.43 Q925.853 1463.08 926.871 1462.92 Q927.89 1462.73 928.908 1462.73 Q934.695 1462.73 938.075 1465.9 Q941.454 1469.08 941.454 1474.49 Q941.454 1480.07 937.982 1483.17 Q934.51 1486.25 928.191 1486.25 Q926.015 1486.25 923.746 1485.88 Q921.501 1485.51 919.093 1484.77 L919.093 1480.07 Q921.177 1481.2 923.399 1481.76 Q925.621 1482.32 928.098 1482.32 Q932.103 1482.32 934.441 1480.21 Q936.779 1478.1 936.779 1474.49 Q936.779 1470.88 934.441 1468.77 Q932.103 1466.67 928.098 1466.67 Q926.223 1466.67 924.348 1467.08 Q922.496 1467.5 920.552 1468.38 L920.552 1451.02 Z" fill="#000000" fill-rule="nonzero" fill-opacity="1" /><path clip-path="url(#clip690)" d="M1497.66 1481.64 L1505.3 1481.64 L1505.3 1455.28 L1496.99 1456.95 L1496.99 1452.69 L1505.25 1451.02 L1509.93 1451.02 L1509.93 1481.64 L1517.57 1481.64 L1517.57 1485.58 L1497.66 1485.58 L1497.66 1481.64 Z" fill="#000000" fill-rule="nonzero" fill-opacity="1" /><path clip-path="url(#clip690)" d="M1537.01 1454.1 Q1533.4 1454.1 1531.57 1457.66 Q1529.77 1461.2 1529.77 1468.33 Q1529.77 1475.44 1531.57 1479.01 Q1533.4 1482.55 1537.01 1482.55 Q1540.65 1482.55 1542.45 1479.01 Q1544.28 1475.44 1544.28 1468.33 Q1544.28 1461.2 1542.45 1457.66 Q1540.65 1454.1 1537.01 1454.1 M1537.01 1450.39 Q1542.82 1450.39 1545.88 1455 Q1548.96 1459.58 1548.96 1468.33 Q1548.96 1477.06 1545.88 1481.67 Q1542.82 1486.25 1537.01 1486.25 Q1531.2 1486.25 1528.13 1481.67 Q1525.07 1477.06 1525.07 1468.33 Q1525.07 1459.58 1528.13 1455 Q1531.2 1450.39 1537.01 1450.39 Z" fill="#000000" fill-rule="nonzero" fill-opacity="1" /><path clip-path="url(#clip690)" d="M2090.86 1481.64 L2098.5 1481.64 L2098.5 1455.28 L2090.19 1456.95 L2090.19 1452.69 L2098.45 1451.02 L2103.13 1451.02 L2103.13 1481.64 L2110.77 1481.64 L2110.77 1485.58 L2090.86 1485.58 L2090.86 1481.64 Z" fill="#000000" fill-rule="nonzero" fill-opacity="1" /><path clip-path="url(#clip690)" d="M2120.26 1451.02 L2138.62 1451.02 L2138.62 1454.96 L2124.54 1454.96 L2124.54 1463.43 Q2125.56 1463.08 2126.58 1462.92 Q2127.6 1462.73 2128.62 1462.73 Q2134.4 1462.73 2137.78 1465.9 Q2141.16 1469.08 2141.16 1474.49 Q2141.16 1480.07 2137.69 1483.17 Q2134.22 1486.25 2127.9 1486.25 Q2125.72 1486.25 2123.45 1485.88 Q2121.21 1485.51 2118.8 1484.77 L2118.8 1480.07 Q2120.88 1481.2 2123.11 1481.76 Q2125.33 1482.32 2127.81 1482.32 Q2131.81 1482.32 2134.15 1480.21 Q2136.49 1478.1 2136.49 1474.49 Q2136.49 1470.88 2134.15 1468.77 Q2131.81 1466.67 2127.81 1466.67 Q2125.93 1466.67 2124.06 1467.08 Q2122.2 1467.5 2120.26 1468.38 L2120.26 1451.02 Z" fill="#000000" fill-rule="nonzero" fill-opacity="1" /><path clip-path="url(#clip690)" d="M1290.27 1516.77 L1280.77 1554.9 Q1280.38 1556.42 1280.38 1558.06 Q1280.38 1561.09 1282.38 1561.09 Q1283.32 1561.09 1284.09 1560.48 Q1284.86 1559.83 1285.44 1558.58 Q1286.05 1557.29 1286.44 1556.06 Q1286.86 1554.84 1287.37 1552.94 Q1287.53 1552.2 1287.7 1551.97 Q1287.86 1551.75 1288.31 1551.75 Q1289.11 1551.75 1289.11 1552.39 Q1288.31 1556.35 1287.12 1558.87 Q1285.38 1562.57 1282.16 1562.57 Q1279.74 1562.57 1277.94 1560.89 Q1276.17 1559.19 1276.17 1556.48 Q1276.17 1555.45 1276.49 1554.23 L1284.8 1521.25 L1285.02 1519.96 Q1285.02 1519.61 1284.89 1519.41 Q1284.76 1519.22 1283.99 1519.03 Q1283.25 1518.83 1281.77 1518.83 Q1281.16 1518.83 1280.87 1518.8 Q1280.61 1518.77 1280.35 1518.61 Q1280.13 1518.45 1280.13 1518.09 Q1280.13 1517.51 1280.35 1517.19 Q1280.61 1516.87 1280.8 1516.8 Q1281 1516.74 1281.38 1516.71 Q1281.93 1516.68 1283.77 1516.52 Q1285.6 1516.32 1287.18 1516.19 Q1288.76 1516.06 1289.43 1516.06 Q1289.82 1516.06 1290.01 1516.26 Q1290.24 1516.42 1290.27 1516.61 L1290.27 1516.77 Z" fill="#000000" fill-rule="nonzero" fill-opacity="1" /><polyline clip-path="url(#clip690)" style="stroke:#000000; stroke-linecap:round; stroke-linejoin:round; stroke-width:4; stroke-opacity:1; fill:none" points="219.033,1423.18 219.033,47.2441 "/>
<polyline clip-path="url(#clip690)" style="stroke:#000000; stroke-linecap:round; stroke-linejoin:round; stroke-width:4; stroke-opacity:1; fill:none" points="2352.76,1423.18 2352.76,47.2441 "/>
<polyline clip-path="url(#clip690)" style="stroke:#000000; stroke-linecap:round; stroke-linejoin:round; stroke-width:4; stroke-opacity:1; fill:none" points="219.033,1417.34 237.931,1417.34 "/>
<polyline clip-path="url(#clip690)" style="stroke:#000000; stroke-linecap:round; stroke-linejoin:round; stroke-width:4; stroke-opacity:1; fill:none" points="219.033,1188.73 237.931,1188.73 "/>
<polyline clip-path="url(#clip690)" style="stroke:#000000; stroke-linecap:round; stroke-linejoin:round; stroke-width:4; stroke-opacity:1; fill:none" points="219.033,960.116 237.931,960.116 "/>
<polyline clip-path="url(#clip690)" style="stroke:#000000; stroke-linecap:round; stroke-linejoin:round; stroke-width:4; stroke-opacity:1; fill:none" points="219.033,731.503 237.931,731.503 "/>
<polyline clip-path="url(#clip690)" style="stroke:#000000; stroke-linecap:round; stroke-linejoin:round; stroke-width:4; stroke-opacity:1; fill:none" points="219.033,502.891 237.931,502.891 "/>
<polyline clip-path="url(#clip690)" style="stroke:#000000; stroke-linecap:round; stroke-linejoin:round; stroke-width:4; stroke-opacity:1; fill:none" points="219.033,274.278 237.931,274.278 "/>
<polyline clip-path="url(#clip690)" style="stroke:#000000; stroke-linecap:round; stroke-linejoin:round; stroke-width:4; stroke-opacity:1; fill:none" points="2352.76,1417.34 2333.86,1417.34 "/>
<polyline clip-path="url(#clip690)" style="stroke:#000000; stroke-linecap:round; stroke-linejoin:round; stroke-width:4; stroke-opacity:1; fill:none" points="2352.76,1188.73 2333.86,1188.73 "/>
<polyline clip-path="url(#clip690)" style="stroke:#000000; stroke-linecap:round; stroke-linejoin:round; stroke-width:4; stroke-opacity:1; fill:none" points="2352.76,960.116 2333.86,960.116 "/>
<polyline clip-path="url(#clip690)" style="stroke:#000000; stroke-linecap:round; stroke-linejoin:round; stroke-width:4; stroke-opacity:1; fill:none" points="2352.76,731.503 2333.86,731.503 "/>
<polyline clip-path="url(#clip690)" style="stroke:#000000; stroke-linecap:round; stroke-linejoin:round; stroke-width:4; stroke-opacity:1; fill:none" points="2352.76,502.891 2333.86,502.891 "/>
<polyline clip-path="url(#clip690)" style="stroke:#000000; stroke-linecap:round; stroke-linejoin:round; stroke-width:4; stroke-opacity:1; fill:none" points="2352.76,274.278 2333.86,274.278 "/>
<path clip-path="url(#clip690)" d="M126.853 1403.14 Q123.242 1403.14 121.413 1406.7 Q119.607 1410.25 119.607 1417.38 Q119.607 1424.48 121.413 1428.05 Q123.242 1431.59 126.853 1431.59 Q130.487 1431.59 132.292 1428.05 Q134.121 1424.48 134.121 1417.38 Q134.121 1410.25 132.292 1406.7 Q130.487 1403.14 126.853 1403.14 M126.853 1399.44 Q132.663 1399.44 135.718 1404.04 Q138.797 1408.63 138.797 1417.38 Q138.797 1426.1 135.718 1430.71 Q132.663 1435.29 126.853 1435.29 Q121.043 1435.29 117.964 1430.71 Q114.908 1426.1 114.908 1417.38 Q114.908 1408.63 117.964 1404.04 Q121.043 1399.44 126.853 1399.44 Z" fill="#000000" fill-rule="nonzero" fill-opacity="1" /><path clip-path="url(#clip690)" d="M147.015 1428.74 L151.899 1428.74 L151.899 1434.62 L147.015 1434.62 L147.015 1428.74 Z" fill="#000000" fill-rule="nonzero" fill-opacity="1" /><path clip-path="url(#clip690)" d="M162.13 1400.06 L180.487 1400.06 L180.487 1404 L166.413 1404 L166.413 1412.47 Q167.431 1412.12 168.45 1411.96 Q169.468 1411.77 170.487 1411.77 Q176.274 1411.77 179.653 1414.94 Q183.033 1418.12 183.033 1423.53 Q183.033 1429.11 179.561 1432.21 Q176.089 1435.29 169.769 1435.29 Q167.593 1435.29 165.325 1434.92 Q163.079 1434.55 160.672 1433.81 L160.672 1429.11 Q162.755 1430.25 164.977 1430.8 Q167.2 1431.36 169.677 1431.36 Q173.681 1431.36 176.019 1429.25 Q178.357 1427.14 178.357 1423.53 Q178.357 1419.92 176.019 1417.82 Q173.681 1415.71 169.677 1415.71 Q167.802 1415.71 165.927 1416.13 Q164.075 1416.54 162.13 1417.42 L162.13 1400.06 Z" fill="#000000" fill-rule="nonzero" fill-opacity="1" /><path clip-path="url(#clip690)" d="M116.668 1202.07 L124.306 1202.07 L124.306 1175.71 L115.996 1177.37 L115.996 1173.11 L124.26 1171.45 L128.936 1171.45 L128.936 1202.07 L136.575 1202.07 L136.575 1206.01 L116.668 1206.01 L116.668 1202.07 Z" fill="#000000" fill-rule="nonzero" fill-opacity="1" /><path clip-path="url(#clip690)" d="M146.019 1200.13 L150.903 1200.13 L150.903 1206.01 L146.019 1206.01 L146.019 1200.13 Z" fill="#000000" fill-rule="nonzero" fill-opacity="1" /><path clip-path="url(#clip690)" d="M171.089 1174.53 Q167.477 1174.53 165.649 1178.09 Q163.843 1181.63 163.843 1188.76 Q163.843 1195.87 165.649 1199.43 Q167.477 1202.98 171.089 1202.98 Q174.723 1202.98 176.528 1199.43 Q178.357 1195.87 178.357 1188.76 Q178.357 1181.63 176.528 1178.09 Q174.723 1174.53 171.089 1174.53 M171.089 1170.82 Q176.899 1170.82 179.954 1175.43 Q183.033 1180.01 183.033 1188.76 Q183.033 1197.49 179.954 1202.1 Q176.899 1206.68 171.089 1206.68 Q165.278 1206.68 162.2 1202.1 Q159.144 1197.49 159.144 1188.76 Q159.144 1180.01 162.2 1175.43 Q165.278 1170.82 171.089 1170.82 Z" fill="#000000" fill-rule="nonzero" fill-opacity="1" /><path clip-path="url(#clip690)" d="M117.663 973.46 L125.302 973.46 L125.302 947.095 L116.992 948.762 L116.992 944.502 L125.255 942.836 L129.931 942.836 L129.931 973.46 L137.57 973.46 L137.57 977.396 L117.663 977.396 L117.663 973.46 Z" fill="#000000" fill-rule="nonzero" fill-opacity="1" /><path clip-path="url(#clip690)" d="M147.015 971.516 L151.899 971.516 L151.899 977.396 L147.015 977.396 L147.015 971.516 Z" fill="#000000" fill-rule="nonzero" fill-opacity="1" /><path clip-path="url(#clip690)" d="M162.13 942.836 L180.487 942.836 L180.487 946.771 L166.413 946.771 L166.413 955.243 Q167.431 954.896 168.45 954.734 Q169.468 954.549 170.487 954.549 Q176.274 954.549 179.653 957.72 Q183.033 960.891 183.033 966.308 Q183.033 971.886 179.561 974.988 Q176.089 978.067 169.769 978.067 Q167.593 978.067 165.325 977.697 Q163.079 977.326 160.672 976.585 L160.672 971.886 Q162.755 973.021 164.977 973.576 Q167.2 974.132 169.677 974.132 Q173.681 974.132 176.019 972.025 Q178.357 969.919 178.357 966.308 Q178.357 962.697 176.019 960.59 Q173.681 958.484 169.677 958.484 Q167.802 958.484 165.927 958.9 Q164.075 959.317 162.13 960.197 L162.13 942.836 Z" fill="#000000" fill-rule="nonzero" fill-opacity="1" /><path clip-path="url(#clip690)" d="M119.885 744.848 L136.204 744.848 L136.204 748.783 L114.26 748.783 L114.26 744.848 Q116.922 742.093 121.505 737.464 Q126.112 732.811 127.292 731.468 Q129.538 728.945 130.417 727.209 Q131.32 725.45 131.32 723.76 Q131.32 721.005 129.376 719.269 Q127.455 717.533 124.353 717.533 Q122.154 717.533 119.7 718.297 Q117.269 719.061 114.492 720.612 L114.492 715.89 Q117.316 714.755 119.769 714.177 Q122.223 713.598 124.26 713.598 Q129.63 713.598 132.825 716.283 Q136.019 718.968 136.019 723.459 Q136.019 725.589 135.209 727.51 Q134.422 729.408 132.316 732.001 Q131.737 732.672 128.635 735.89 Q125.533 739.084 119.885 744.848 Z" fill="#000000" fill-rule="nonzero" fill-opacity="1" /><path clip-path="url(#clip690)" d="M146.019 742.903 L150.903 742.903 L150.903 748.783 L146.019 748.783 L146.019 742.903 Z" fill="#000000" fill-rule="nonzero" fill-opacity="1" /><path clip-path="url(#clip690)" d="M171.089 717.302 Q167.477 717.302 165.649 720.867 Q163.843 724.408 163.843 731.538 Q163.843 738.644 165.649 742.209 Q167.477 745.751 171.089 745.751 Q174.723 745.751 176.528 742.209 Q178.357 738.644 178.357 731.538 Q178.357 724.408 176.528 720.867 Q174.723 717.302 171.089 717.302 M171.089 713.598 Q176.899 713.598 179.954 718.205 Q183.033 722.788 183.033 731.538 Q183.033 740.265 179.954 744.871 Q176.899 749.454 171.089 749.454 Q165.278 749.454 162.2 744.871 Q159.144 740.265 159.144 731.538 Q159.144 722.788 162.2 718.205 Q165.278 713.598 171.089 713.598 Z" fill="#000000" fill-rule="nonzero" fill-opacity="1" /><path clip-path="url(#clip690)" d="M120.88 516.235 L137.2 516.235 L137.2 520.171 L115.256 520.171 L115.256 516.235 Q117.918 513.481 122.501 508.851 Q127.107 504.198 128.288 502.856 Q130.533 500.333 131.413 498.597 Q132.316 496.837 132.316 495.148 Q132.316 492.393 130.371 490.657 Q128.45 488.921 125.348 488.921 Q123.149 488.921 120.695 489.685 Q118.265 490.448 115.487 491.999 L115.487 487.277 Q118.311 486.143 120.765 485.564 Q123.218 484.986 125.255 484.986 Q130.626 484.986 133.82 487.671 Q137.015 490.356 137.015 494.847 Q137.015 496.976 136.204 498.897 Q135.417 500.796 133.311 503.388 Q132.732 504.059 129.63 507.277 Q126.529 510.471 120.88 516.235 Z" fill="#000000" fill-rule="nonzero" fill-opacity="1" /><path clip-path="url(#clip690)" d="M147.015 514.291 L151.899 514.291 L151.899 520.171 L147.015 520.171 L147.015 514.291 Z" fill="#000000" fill-rule="nonzero" fill-opacity="1" /><path clip-path="url(#clip690)" d="M162.13 485.611 L180.487 485.611 L180.487 489.546 L166.413 489.546 L166.413 498.018 Q167.431 497.671 168.45 497.509 Q169.468 497.323 170.487 497.323 Q176.274 497.323 179.653 500.495 Q183.033 503.666 183.033 509.083 Q183.033 514.661 179.561 517.763 Q176.089 520.842 169.769 520.842 Q167.593 520.842 165.325 520.471 Q163.079 520.101 160.672 519.36 L160.672 514.661 Q162.755 515.796 164.977 516.351 Q167.2 516.907 169.677 516.907 Q173.681 516.907 176.019 514.8 Q178.357 512.694 178.357 509.083 Q178.357 505.472 176.019 503.365 Q173.681 501.259 169.677 501.259 Q167.802 501.259 165.927 501.675 Q164.075 502.092 162.13 502.972 L162.13 485.611 Z" fill="#000000" fill-rule="nonzero" fill-opacity="1" /><path clip-path="url(#clip690)" d="M130.024 272.924 Q133.38 273.641 135.255 275.91 Q137.154 278.178 137.154 281.512 Q137.154 286.627 133.635 289.428 Q130.117 292.229 123.635 292.229 Q121.459 292.229 119.144 291.789 Q116.853 291.373 114.399 290.516 L114.399 286.002 Q116.343 287.137 118.658 287.715 Q120.973 288.294 123.496 288.294 Q127.894 288.294 130.186 286.558 Q132.501 284.822 132.501 281.512 Q132.501 278.456 130.348 276.743 Q128.218 275.007 124.399 275.007 L120.371 275.007 L120.371 271.165 L124.584 271.165 Q128.033 271.165 129.862 269.799 Q131.691 268.41 131.691 265.817 Q131.691 263.155 129.792 261.743 Q127.917 260.308 124.399 260.308 Q122.478 260.308 120.279 260.725 Q118.08 261.141 115.441 262.021 L115.441 257.854 Q118.103 257.114 120.418 256.743 Q122.755 256.373 124.816 256.373 Q130.14 256.373 133.242 258.803 Q136.343 261.211 136.343 265.331 Q136.343 268.202 134.7 270.192 Q133.056 272.16 130.024 272.924 Z" fill="#000000" fill-rule="nonzero" fill-opacity="1" /><path clip-path="url(#clip690)" d="M146.019 285.678 L150.903 285.678 L150.903 291.558 L146.019 291.558 L146.019 285.678 Z" fill="#000000" fill-rule="nonzero" fill-opacity="1" /><path clip-path="url(#clip690)" d="M171.089 260.077 Q167.477 260.077 165.649 263.641 Q163.843 267.183 163.843 274.313 Q163.843 281.419 165.649 284.984 Q167.477 288.526 171.089 288.526 Q174.723 288.526 176.528 284.984 Q178.357 281.419 178.357 274.313 Q178.357 267.183 176.528 263.641 Q174.723 260.077 171.089 260.077 M171.089 256.373 Q176.899 256.373 179.954 260.979 Q183.033 265.563 183.033 274.313 Q183.033 283.039 179.954 287.646 Q176.899 292.229 171.089 292.229 Q165.278 292.229 162.2 287.646 Q159.144 283.039 159.144 274.313 Q159.144 265.563 162.2 260.979 Q165.278 256.373 171.089 256.373 Z" fill="#000000" fill-rule="nonzero" fill-opacity="1" /><path clip-path="url(#clip690)" d="M16.6034 753.231 L31.0317 756.806 Q31.9012 756.999 32.1267 757.16 Q32.3521 757.321 32.3521 757.772 Q32.3521 758.126 32.1911 758.352 Q32.03 758.545 31.869 758.545 L31.708 758.577 Q31.6114 758.577 31.1283 758.513 Q30.613 758.449 29.7756 758.384 Q28.9383 758.32 28.0043 758.32 Q22.7225 758.32 20.2749 760.896 Q17.7951 763.44 17.7951 767.82 Q17.7951 770.848 19.4053 773.553 Q21.0156 776.258 23.5599 777.804 Q26.072 779.35 28.7128 779.35 Q31.1283 779.35 32.6742 778.126 Q34.22 776.902 34.7353 775.324 L35.927 770.912 Q37.1186 766.275 37.6339 764.954 Q38.117 763.634 39.212 762.539 Q42.2393 759.286 46.9414 759.286 Q50.9993 759.286 54.9284 761.572 Q58.8253 763.859 61.3696 767.788 Q63.8816 771.717 63.8816 776.065 Q63.8816 783.698 59.1474 787.208 L62.8833 790.429 Q63.5918 791.041 63.7206 791.234 Q63.8816 791.395 63.8816 791.621 Q63.8816 791.91 63.6884 792.136 Q63.5274 792.361 63.2375 792.361 Q63.0121 792.361 55.4437 790.461 Q47.8753 788.561 47.7143 788.4 Q47.4567 788.142 47.4567 787.724 Q47.4567 786.951 48.1974 786.951 Q48.3906 787.015 48.6483 787.08 Q50.9671 787.466 52.2231 787.466 Q54.5741 787.466 56.3777 786.661 Q58.149 785.856 59.1796 784.664 Q60.178 783.44 60.8221 781.798 Q61.434 780.155 61.6594 778.77 Q61.8527 777.386 61.8527 775.936 Q61.8527 772.812 60.0491 770.043 Q58.2456 767.241 55.4437 765.663 Q52.6418 764.052 49.7111 764.052 Q48.1652 764.052 46.9736 764.471 Q45.7497 764.89 45.0734 765.469 Q44.3971 766.017 43.8818 766.951 Q43.3665 767.885 43.1733 768.529 Q42.9478 769.141 42.7224 770.107 L40.8544 777.16 Q40.0171 779.994 37.6017 782.023 Q35.1862 784.02 31.4825 784.02 Q27.5856 784.02 23.9786 781.733 Q20.3393 779.415 18.1493 775.646 Q15.9271 771.846 15.9271 767.756 Q15.9271 764.535 17.1831 762.056 Q18.407 759.576 20.6936 758.32 L16.9255 755.131 Q16.1848 754.487 16.0559 754.358 Q15.9271 754.197 15.9271 753.972 Q15.9271 753.585 16.1526 753.424 Q16.378 753.231 16.6034 753.231 Z" fill="#000000" fill-rule="nonzero" fill-opacity="1" /><path clip-path="url(#clip690)" d="M65.4338 726.304 Q66.0199 726.304 67.1697 726.462 Q68.3194 726.62 69.9877 727.003 Q71.6559 727.386 73.4144 727.95 Q75.1728 728.491 76.9313 729.348 Q78.6672 730.204 80.0423 731.219 Q81.4175 732.233 82.2742 733.654 Q83.1309 735.074 83.1309 736.674 Q83.1309 737.418 83.0182 738.14 Q82.9054 738.861 82.5447 739.763 Q82.184 740.665 81.5979 741.319 Q80.9892 741.972 79.9071 742.423 Q78.825 742.874 77.4047 742.874 Q75.9393 742.874 73.978 742.333 Q71.9941 741.769 67.9362 740.236 Q65.8396 739.447 64.6898 739.447 Q64.1713 739.447 63.8557 739.56 Q63.5175 739.673 63.4048 739.898 Q63.2695 740.124 63.247 740.259 Q63.2244 740.372 63.2244 740.597 Q63.2244 741.837 64.5095 743.099 Q65.7945 744.362 68.9506 745.264 Q69.5143 745.444 69.6495 745.557 Q69.7848 745.67 69.7848 746.008 Q69.7622 746.571 69.3114 746.571 Q69.1761 746.571 68.6576 746.413 Q68.1165 746.256 67.3049 745.963 Q66.4708 745.67 65.6141 745.151 Q64.7349 744.632 63.9684 744.001 Q63.2019 743.347 62.7059 742.423 Q62.21 741.499 62.21 740.462 Q62.21 738.771 63.3146 737.734 Q64.3967 736.674 65.9974 736.674 Q66.8766 736.674 68.2969 737.238 Q70.8669 738.185 72.1068 738.613 Q73.3467 739.042 75.1052 739.492 Q76.8636 739.921 78.081 739.921 Q79.9296 739.921 81.0117 739.064 Q82.0939 738.207 82.0939 736.494 Q82.0939 734.961 80.9892 733.586 Q79.862 732.188 78.2614 731.264 Q76.6382 730.34 74.8347 729.641 Q73.0086 728.942 71.6334 728.626 Q70.2357 728.288 69.5819 728.288 Q67.3049 728.288 65.817 729.844 Q65.3887 730.272 65.1182 730.43 Q64.8476 730.588 64.4193 730.588 Q63.6302 730.588 62.9314 729.889 Q62.21 729.167 62.21 728.333 Q62.21 727.567 62.9765 726.935 Q63.743 726.304 65.4338 726.304 Z" fill="#000000" fill-rule="nonzero" fill-opacity="1" /><path clip-path="url(#clip690)" d="M51.5917 682.945 Q52.516 682.945 52.516 683.734 Q52.6062 686.282 53.4629 687.319 Q54.297 688.333 55.9202 688.717 L81.643 695.164 Q82.4546 695.39 82.5447 695.525 Q82.6124 695.66 82.6124 695.908 Q82.6124 696.224 82.4546 696.404 Q82.2968 696.562 81.7332 696.787 L54.545 708.285 Q54.3646 708.375 54.1166 708.488 Q53.8686 708.601 53.7108 708.691 L78.081 714.8 Q78.7799 714.981 79.1406 714.981 Q80.0198 714.981 80.5834 714.372 Q81.1245 713.741 81.1921 711.937 Q81.1921 711.013 81.6881 711.013 Q82.6124 711.013 82.6124 711.847 Q82.6124 712.613 82.5447 714.214 Q82.4771 715.815 82.4771 716.604 Q82.4771 717.37 82.5447 718.926 Q82.6124 720.481 82.6124 721.225 Q82.6124 721.811 82.0939 721.811 Q81.6881 721.811 81.4852 721.654 Q81.2597 721.496 81.2372 721.361 Q81.1921 721.225 81.1921 721.022 Q81.147 719.67 80.8765 718.745 Q80.606 717.821 80.0874 717.303 Q79.5689 716.762 79.0504 716.514 Q78.5093 716.243 77.7203 716.04 L52.9218 709.863 Q52.516 709.863 52.516 712.997 Q52.516 713.538 52.4935 713.763 Q52.4709 713.966 52.3582 714.124 Q52.2455 714.282 51.9975 714.282 Q51.3662 714.282 51.231 714.011 Q51.0732 713.741 51.0732 712.952 L51.0732 706.752 Q51.0732 705.963 51.2084 705.76 Q51.3212 705.557 51.9524 705.287 L76.052 695.074 L55.5144 689.912 Q55.1086 689.776 54.545 689.776 Q53.6432 689.776 53.1021 690.453 Q52.5385 691.106 52.516 692.91 Q52.516 693.744 51.9975 693.744 Q51.5691 693.744 51.3662 693.586 Q51.1408 693.406 51.1183 693.271 Q51.0732 693.113 51.0732 692.91 Q51.0732 692.143 51.1408 690.565 Q51.2084 688.987 51.2084 688.198 Q51.2084 687.432 51.1408 685.876 Q51.0732 684.298 51.0732 683.532 Q51.0732 683.261 51.2084 683.126 Q51.3212 682.968 51.4564 682.945 L51.5917 682.945 Z" fill="#000000" fill-rule="nonzero" fill-opacity="1" /><polyline clip-path="url(#clip692)" style="stroke:#000000; stroke-linecap:round; stroke-linejoin:round; stroke-width:8; stroke-opacity:1; fill:none" points="456.113,1351.18 456.113,1351.18 "/>
<polyline clip-path="url(#clip692)" style="stroke:#000000; stroke-linecap:round; stroke-linejoin:round; stroke-width:8; stroke-opacity:1; fill:none" points="574.653,1148.88 574.653,1148.88 "/>
<polyline clip-path="url(#clip692)" style="stroke:#000000; stroke-linecap:round; stroke-linejoin:round; stroke-width:8; stroke-opacity:1; fill:none" points="693.194,1044.04 693.194,1044.04 "/>
<polyline clip-path="url(#clip692)" style="stroke:#000000; stroke-linecap:round; stroke-linejoin:round; stroke-width:8; stroke-opacity:1; fill:none" points="811.734,975.636 811.734,975.636 "/>
<polyline clip-path="url(#clip692)" style="stroke:#000000; stroke-linecap:round; stroke-linejoin:round; stroke-width:8; stroke-opacity:1; fill:none" points="930.274,932.703 930.274,932.703 "/>
<polyline clip-path="url(#clip692)" style="stroke:#000000; stroke-linecap:round; stroke-linejoin:round; stroke-width:8; stroke-opacity:1; fill:none" points="1048.81,900.722 1048.81,900.722 "/>
<polyline clip-path="url(#clip692)" style="stroke:#000000; stroke-linecap:round; stroke-linejoin:round; stroke-width:8; stroke-opacity:1; fill:none" points="1167.35,883.978 1167.35,883.978 "/>
<polyline clip-path="url(#clip692)" style="stroke:#000000; stroke-linecap:round; stroke-linejoin:round; stroke-width:8; stroke-opacity:1; fill:none" points="1285.89,875.789 1285.89,875.789 "/>
<polyline clip-path="url(#clip692)" style="stroke:#000000; stroke-linecap:round; stroke-linejoin:round; stroke-width:8; stroke-opacity:1; fill:none" points="1404.43,883.978 1404.43,883.978 "/>
<polyline clip-path="url(#clip692)" style="stroke:#000000; stroke-linecap:round; stroke-linejoin:round; stroke-width:8; stroke-opacity:1; fill:none" points="1522.97,900.722 1522.97,900.722 "/>
<polyline clip-path="url(#clip692)" style="stroke:#000000; stroke-linecap:round; stroke-linejoin:round; stroke-width:8; stroke-opacity:1; fill:none" points="1641.51,932.703 1641.51,932.703 "/>
<polyline clip-path="url(#clip692)" style="stroke:#000000; stroke-linecap:round; stroke-linejoin:round; stroke-width:8; stroke-opacity:1; fill:none" points="1760.06,975.636 1760.06,975.636 "/>
<polyline clip-path="url(#clip692)" style="stroke:#000000; stroke-linecap:round; stroke-linejoin:round; stroke-width:8; stroke-opacity:1; fill:none" points="1878.6,1044.04 1878.6,1044.04 "/>
<polyline clip-path="url(#clip692)" style="stroke:#000000; stroke-linecap:round; stroke-linejoin:round; stroke-width:8; stroke-opacity:1; fill:none" points="1997.14,1148.88 1997.14,1148.88 "/>
<polyline clip-path="url(#clip692)" style="stroke:#000000; stroke-linecap:round; stroke-linejoin:round; stroke-width:8; stroke-opacity:1; fill:none" points="2115.68,1351.18 2115.68,1351.18 "/>
<line clip-path="url(#clip692)" x1="480.113" y1="1351.18" x2="432.113" y2="1351.18" style="stroke:#000000; stroke-width:8; stroke-opacity:1"/>
<line clip-path="url(#clip692)" x1="480.113" y1="1351.18" x2="432.113" y2="1351.18" style="stroke:#000000; stroke-width:8; stroke-opacity:1"/>
<line clip-path="url(#clip692)" x1="598.653" y1="1148.88" x2="550.653" y2="1148.88" style="stroke:#000000; stroke-width:8; stroke-opacity:1"/>
<line clip-path="url(#clip692)" x1="598.653" y1="1148.88" x2="550.653" y2="1148.88" style="stroke:#000000; stroke-width:8; stroke-opacity:1"/>
<line clip-path="url(#clip692)" x1="717.194" y1="1044.04" x2="669.194" y2="1044.04" style="stroke:#000000; stroke-width:8; stroke-opacity:1"/>
<line clip-path="url(#clip692)" x1="717.194" y1="1044.04" x2="669.194" y2="1044.04" style="stroke:#000000; stroke-width:8; stroke-opacity:1"/>
<line clip-path="url(#clip692)" x1="835.734" y1="975.636" x2="787.734" y2="975.636" style="stroke:#000000; stroke-width:8; stroke-opacity:1"/>
<line clip-path="url(#clip692)" x1="835.734" y1="975.636" x2="787.734" y2="975.636" style="stroke:#000000; stroke-width:8; stroke-opacity:1"/>
<line clip-path="url(#clip692)" x1="954.274" y1="932.703" x2="906.274" y2="932.703" style="stroke:#000000; stroke-width:8; stroke-opacity:1"/>
<line clip-path="url(#clip692)" x1="954.274" y1="932.703" x2="906.274" y2="932.703" style="stroke:#000000; stroke-width:8; stroke-opacity:1"/>
<line clip-path="url(#clip692)" x1="1072.81" y1="900.722" x2="1024.81" y2="900.722" style="stroke:#000000; stroke-width:8; stroke-opacity:1"/>
<line clip-path="url(#clip692)" x1="1072.81" y1="900.722" x2="1024.81" y2="900.722" style="stroke:#000000; stroke-width:8; stroke-opacity:1"/>
<line clip-path="url(#clip692)" x1="1191.35" y1="883.978" x2="1143.35" y2="883.978" style="stroke:#000000; stroke-width:8; stroke-opacity:1"/>
<line clip-path="url(#clip692)" x1="1191.35" y1="883.978" x2="1143.35" y2="883.978" style="stroke:#000000; stroke-width:8; stroke-opacity:1"/>
<line clip-path="url(#clip692)" x1="1309.89" y1="875.789" x2="1261.89" y2="875.789" style="stroke:#000000; stroke-width:8; stroke-opacity:1"/>
<line clip-path="url(#clip692)" x1="1309.89" y1="875.789" x2="1261.89" y2="875.789" style="stroke:#000000; stroke-width:8; stroke-opacity:1"/>
<line clip-path="url(#clip692)" x1="1428.43" y1="883.978" x2="1380.43" y2="883.978" style="stroke:#000000; stroke-width:8; stroke-opacity:1"/>
<line clip-path="url(#clip692)" x1="1428.43" y1="883.978" x2="1380.43" y2="883.978" style="stroke:#000000; stroke-width:8; stroke-opacity:1"/>
<line clip-path="url(#clip692)" x1="1546.97" y1="900.722" x2="1498.97" y2="900.722" style="stroke:#000000; stroke-width:8; stroke-opacity:1"/>
<line clip-path="url(#clip692)" x1="1546.97" y1="900.722" x2="1498.97" y2="900.722" style="stroke:#000000; stroke-width:8; stroke-opacity:1"/>
<line clip-path="url(#clip692)" x1="1665.51" y1="932.703" x2="1617.51" y2="932.703" style="stroke:#000000; stroke-width:8; stroke-opacity:1"/>
<line clip-path="url(#clip692)" x1="1665.51" y1="932.703" x2="1617.51" y2="932.703" style="stroke:#000000; stroke-width:8; stroke-opacity:1"/>
<line clip-path="url(#clip692)" x1="1784.06" y1="975.636" x2="1736.06" y2="975.636" style="stroke:#000000; stroke-width:8; stroke-opacity:1"/>
<line clip-path="url(#clip692)" x1="1784.06" y1="975.636" x2="1736.06" y2="975.636" style="stroke:#000000; stroke-width:8; stroke-opacity:1"/>
<line clip-path="url(#clip692)" x1="1902.6" y1="1044.04" x2="1854.6" y2="1044.04" style="stroke:#000000; stroke-width:8; stroke-opacity:1"/>
<line clip-path="url(#clip692)" x1="1902.6" y1="1044.04" x2="1854.6" y2="1044.04" style="stroke:#000000; stroke-width:8; stroke-opacity:1"/>
<line clip-path="url(#clip692)" x1="2021.14" y1="1148.88" x2="1973.14" y2="1148.88" style="stroke:#000000; stroke-width:8; stroke-opacity:1"/>
<line clip-path="url(#clip692)" x1="2021.14" y1="1148.88" x2="1973.14" y2="1148.88" style="stroke:#000000; stroke-width:8; stroke-opacity:1"/>
<line clip-path="url(#clip692)" x1="2139.68" y1="1351.18" x2="2091.68" y2="1351.18" style="stroke:#000000; stroke-width:8; stroke-opacity:1"/>
<line clip-path="url(#clip692)" x1="2139.68" y1="1351.18" x2="2091.68" y2="1351.18" style="stroke:#000000; stroke-width:8; stroke-opacity:1"/>
<circle clip-path="url(#clip692)" cx="456.113" cy="1351.18" r="21.6" fill="#ff0000" fill-rule="evenodd" fill-opacity="1" stroke="#000000" stroke-opacity="1" stroke-width="3.2"/>
<circle clip-path="url(#clip692)" cx="574.653" cy="1148.88" r="21.6" fill="#ff0000" fill-rule="evenodd" fill-opacity="1" stroke="#000000" stroke-opacity="1" stroke-width="3.2"/>
<circle clip-path="url(#clip692)" cx="693.194" cy="1044.04" r="21.6" fill="#ff0000" fill-rule="evenodd" fill-opacity="1" stroke="#000000" stroke-opacity="1" stroke-width="3.2"/>
<circle clip-path="url(#clip692)" cx="811.734" cy="975.636" r="21.6" fill="#ff0000" fill-rule="evenodd" fill-opacity="1" stroke="#000000" stroke-opacity="1" stroke-width="3.2"/>
<circle clip-path="url(#clip692)" cx="930.274" cy="932.703" r="21.6" fill="#ff0000" fill-rule="evenodd" fill-opacity="1" stroke="#000000" stroke-opacity="1" stroke-width="3.2"/>
<circle clip-path="url(#clip692)" cx="1048.81" cy="900.722" r="21.6" fill="#ff0000" fill-rule="evenodd" fill-opacity="1" stroke="#000000" stroke-opacity="1" stroke-width="3.2"/>
<circle clip-path="url(#clip692)" cx="1167.35" cy="883.978" r="21.6" fill="#ff0000" fill-rule="evenodd" fill-opacity="1" stroke="#000000" stroke-opacity="1" stroke-width="3.2"/>
<circle clip-path="url(#clip692)" cx="1285.89" cy="875.789" r="21.6" fill="#ff0000" fill-rule="evenodd" fill-opacity="1" stroke="#000000" stroke-opacity="1" stroke-width="3.2"/>
<circle clip-path="url(#clip692)" cx="1404.43" cy="883.978" r="21.6" fill="#ff0000" fill-rule="evenodd" fill-opacity="1" stroke="#000000" stroke-opacity="1" stroke-width="3.2"/>
<circle clip-path="url(#clip692)" cx="1522.97" cy="900.722" r="21.6" fill="#ff0000" fill-rule="evenodd" fill-opacity="1" stroke="#000000" stroke-opacity="1" stroke-width="3.2"/>
<circle clip-path="url(#clip692)" cx="1641.51" cy="932.703" r="21.6" fill="#ff0000" fill-rule="evenodd" fill-opacity="1" stroke="#000000" stroke-opacity="1" stroke-width="3.2"/>
<circle clip-path="url(#clip692)" cx="1760.06" cy="975.636" r="21.6" fill="#ff0000" fill-rule="evenodd" fill-opacity="1" stroke="#000000" stroke-opacity="1" stroke-width="3.2"/>
<circle clip-path="url(#clip692)" cx="1878.6" cy="1044.04" r="21.6" fill="#ff0000" fill-rule="evenodd" fill-opacity="1" stroke="#000000" stroke-opacity="1" stroke-width="3.2"/>
<circle clip-path="url(#clip692)" cx="1997.14" cy="1148.88" r="21.6" fill="#ff0000" fill-rule="evenodd" fill-opacity="1" stroke="#000000" stroke-opacity="1" stroke-width="3.2"/>
<circle clip-path="url(#clip692)" cx="2115.68" cy="1351.18" r="21.6" fill="#ff0000" fill-rule="evenodd" fill-opacity="1" stroke="#000000" stroke-opacity="1" stroke-width="3.2"/>
<polyline clip-path="url(#clip692)" style="stroke:#ff0000; stroke-linecap:round; stroke-linejoin:round; stroke-width:4; stroke-opacity:1; fill:none" stroke-dasharray="16, 10" points="456.113,1347.73 574.653,1153.63 693.194,1046.23 811.734,976.742 930.274,930.067 1048.81,899.705 1167.35,882.485 1285.89,876.895 1404.43,882.485 1522.97,899.705 1641.51,930.067 1760.06,976.742 1878.6,1046.23 1997.14,1153.63 2115.68,1347.73 "/>
<polyline clip-path="url(#clip692)" style="stroke:#000000; stroke-linecap:round; stroke-linejoin:round; stroke-width:8; stroke-opacity:1; fill:none" points="456.113,1374.79 456.113,1374.79 "/>
<polyline clip-path="url(#clip692)" style="stroke:#000000; stroke-linecap:round; stroke-linejoin:round; stroke-width:8; stroke-opacity:1; fill:none" points="574.653,1153.58 574.653,1153.58 "/>
<polyline clip-path="url(#clip692)" style="stroke:#000000; stroke-linecap:round; stroke-linejoin:round; stroke-width:8; stroke-opacity:1; fill:none" points="693.194,946.927 693.194,946.927 "/>
<polyline clip-path="url(#clip692)" style="stroke:#000000; stroke-linecap:round; stroke-linejoin:round; stroke-width:8; stroke-opacity:1; fill:none" points="811.734,736.197 811.734,736.197 "/>
<polyline clip-path="url(#clip692)" style="stroke:#000000; stroke-linecap:round; stroke-linejoin:round; stroke-width:8; stroke-opacity:1; fill:none" points="930.274,540.367 930.274,540.367 "/>
<polyline clip-path="url(#clip692)" style="stroke:#000000; stroke-linecap:round; stroke-linejoin:round; stroke-width:8; stroke-opacity:1; fill:none" points="1048.81,346.912 1048.81,346.912 "/>
<polyline clip-path="url(#clip692)" style="stroke:#000000; stroke-linecap:round; stroke-linejoin:round; stroke-width:8; stroke-opacity:1; fill:none" points="1167.35,219.734 1167.35,219.734 "/>
<polyline clip-path="url(#clip692)" style="stroke:#000000; stroke-linecap:round; stroke-linejoin:round; stroke-width:8; stroke-opacity:1; fill:none" points="1285.89,163.202 1285.89,163.202 "/>
<polyline clip-path="url(#clip692)" style="stroke:#000000; stroke-linecap:round; stroke-linejoin:round; stroke-width:8; stroke-opacity:1; fill:none" points="1404.43,217.222 1404.43,217.222 "/>
<polyline clip-path="url(#clip692)" style="stroke:#000000; stroke-linecap:round; stroke-linejoin:round; stroke-width:8; stroke-opacity:1; fill:none" points="1522.97,364.834 1522.97,364.834 "/>
<polyline clip-path="url(#clip692)" style="stroke:#000000; stroke-linecap:round; stroke-linejoin:round; stroke-width:8; stroke-opacity:1; fill:none" points="1641.51,553.124 1641.51,553.124 "/>
<polyline clip-path="url(#clip692)" style="stroke:#000000; stroke-linecap:round; stroke-linejoin:round; stroke-width:8; stroke-opacity:1; fill:none" points="1760.06,760.711 1760.06,760.711 "/>
<polyline clip-path="url(#clip692)" style="stroke:#000000; stroke-linecap:round; stroke-linejoin:round; stroke-width:8; stroke-opacity:1; fill:none" points="1878.6,956.6 1878.6,956.6 "/>
<polyline clip-path="url(#clip692)" style="stroke:#000000; stroke-linecap:round; stroke-linejoin:round; stroke-width:8; stroke-opacity:1; fill:none" points="1997.14,1157.09 1997.14,1157.09 "/>
<polyline clip-path="url(#clip692)" style="stroke:#000000; stroke-linecap:round; stroke-linejoin:round; stroke-width:8; stroke-opacity:1; fill:none" points="2115.68,1384.24 2115.68,1384.24 "/>
<line clip-path="url(#clip692)" x1="480.113" y1="1374.79" x2="432.113" y2="1374.79" style="stroke:#000000; stroke-width:8; stroke-opacity:1"/>
<line clip-path="url(#clip692)" x1="480.113" y1="1374.79" x2="432.113" y2="1374.79" style="stroke:#000000; stroke-width:8; stroke-opacity:1"/>
<line clip-path="url(#clip692)" x1="598.653" y1="1153.58" x2="550.653" y2="1153.58" style="stroke:#000000; stroke-width:8; stroke-opacity:1"/>
<line clip-path="url(#clip692)" x1="598.653" y1="1153.58" x2="550.653" y2="1153.58" style="stroke:#000000; stroke-width:8; stroke-opacity:1"/>
<line clip-path="url(#clip692)" x1="717.194" y1="946.927" x2="669.194" y2="946.927" style="stroke:#000000; stroke-width:8; stroke-opacity:1"/>
<line clip-path="url(#clip692)" x1="717.194" y1="946.927" x2="669.194" y2="946.927" style="stroke:#000000; stroke-width:8; stroke-opacity:1"/>
<line clip-path="url(#clip692)" x1="835.734" y1="736.197" x2="787.734" y2="736.197" style="stroke:#000000; stroke-width:8; stroke-opacity:1"/>
<line clip-path="url(#clip692)" x1="835.734" y1="736.197" x2="787.734" y2="736.197" style="stroke:#000000; stroke-width:8; stroke-opacity:1"/>
<line clip-path="url(#clip692)" x1="954.274" y1="540.367" x2="906.274" y2="540.367" style="stroke:#000000; stroke-width:8; stroke-opacity:1"/>
<line clip-path="url(#clip692)" x1="954.274" y1="540.367" x2="906.274" y2="540.367" style="stroke:#000000; stroke-width:8; stroke-opacity:1"/>
<line clip-path="url(#clip692)" x1="1072.81" y1="346.912" x2="1024.81" y2="346.912" style="stroke:#000000; stroke-width:8; stroke-opacity:1"/>
<line clip-path="url(#clip692)" x1="1072.81" y1="346.912" x2="1024.81" y2="346.912" style="stroke:#000000; stroke-width:8; stroke-opacity:1"/>
<line clip-path="url(#clip692)" x1="1191.35" y1="219.734" x2="1143.35" y2="219.734" style="stroke:#000000; stroke-width:8; stroke-opacity:1"/>
<line clip-path="url(#clip692)" x1="1191.35" y1="219.734" x2="1143.35" y2="219.734" style="stroke:#000000; stroke-width:8; stroke-opacity:1"/>
<line clip-path="url(#clip692)" x1="1309.89" y1="163.202" x2="1261.89" y2="163.202" style="stroke:#000000; stroke-width:8; stroke-opacity:1"/>
<line clip-path="url(#clip692)" x1="1309.89" y1="163.202" x2="1261.89" y2="163.202" style="stroke:#000000; stroke-width:8; stroke-opacity:1"/>
<line clip-path="url(#clip692)" x1="1428.43" y1="217.222" x2="1380.43" y2="217.222" style="stroke:#000000; stroke-width:8; stroke-opacity:1"/>
<line clip-path="url(#clip692)" x1="1428.43" y1="217.222" x2="1380.43" y2="217.222" style="stroke:#000000; stroke-width:8; stroke-opacity:1"/>
<line clip-path="url(#clip692)" x1="1546.97" y1="364.834" x2="1498.97" y2="364.834" style="stroke:#000000; stroke-width:8; stroke-opacity:1"/>
<line clip-path="url(#clip692)" x1="1546.97" y1="364.834" x2="1498.97" y2="364.834" style="stroke:#000000; stroke-width:8; stroke-opacity:1"/>
<line clip-path="url(#clip692)" x1="1665.51" y1="553.124" x2="1617.51" y2="553.124" style="stroke:#000000; stroke-width:8; stroke-opacity:1"/>
<line clip-path="url(#clip692)" x1="1665.51" y1="553.124" x2="1617.51" y2="553.124" style="stroke:#000000; stroke-width:8; stroke-opacity:1"/>
<line clip-path="url(#clip692)" x1="1784.06" y1="760.711" x2="1736.06" y2="760.711" style="stroke:#000000; stroke-width:8; stroke-opacity:1"/>
<line clip-path="url(#clip692)" x1="1784.06" y1="760.711" x2="1736.06" y2="760.711" style="stroke:#000000; stroke-width:8; stroke-opacity:1"/>
<line clip-path="url(#clip692)" x1="1902.6" y1="956.6" x2="1854.6" y2="956.6" style="stroke:#000000; stroke-width:8; stroke-opacity:1"/>
<line clip-path="url(#clip692)" x1="1902.6" y1="956.6" x2="1854.6" y2="956.6" style="stroke:#000000; stroke-width:8; stroke-opacity:1"/>
<line clip-path="url(#clip692)" x1="2021.14" y1="1157.09" x2="1973.14" y2="1157.09" style="stroke:#000000; stroke-width:8; stroke-opacity:1"/>
<line clip-path="url(#clip692)" x1="2021.14" y1="1157.09" x2="1973.14" y2="1157.09" style="stroke:#000000; stroke-width:8; stroke-opacity:1"/>
<line clip-path="url(#clip692)" x1="2139.68" y1="1384.24" x2="2091.68" y2="1384.24" style="stroke:#000000; stroke-width:8; stroke-opacity:1"/>
<line clip-path="url(#clip692)" x1="2139.68" y1="1384.24" x2="2091.68" y2="1384.24" style="stroke:#000000; stroke-width:8; stroke-opacity:1"/>
<circle clip-path="url(#clip692)" cx="456.113" cy="1374.79" r="21.6" fill="#0c9ffa" fill-rule="evenodd" fill-opacity="1" stroke="#000000" stroke-opacity="1" stroke-width="3.2"/>
<circle clip-path="url(#clip692)" cx="574.653" cy="1153.58" r="21.6" fill="#0c9ffa" fill-rule="evenodd" fill-opacity="1" stroke="#000000" stroke-opacity="1" stroke-width="3.2"/>
<circle clip-path="url(#clip692)" cx="693.194" cy="946.927" r="21.6" fill="#0c9ffa" fill-rule="evenodd" fill-opacity="1" stroke="#000000" stroke-opacity="1" stroke-width="3.2"/>
<circle clip-path="url(#clip692)" cx="811.734" cy="736.197" r="21.6" fill="#0c9ffa" fill-rule="evenodd" fill-opacity="1" stroke="#000000" stroke-opacity="1" stroke-width="3.2"/>
<circle clip-path="url(#clip692)" cx="930.274" cy="540.367" r="21.6" fill="#0c9ffa" fill-rule="evenodd" fill-opacity="1" stroke="#000000" stroke-opacity="1" stroke-width="3.2"/>
<circle clip-path="url(#clip692)" cx="1048.81" cy="346.912" r="21.6" fill="#0c9ffa" fill-rule="evenodd" fill-opacity="1" stroke="#000000" stroke-opacity="1" stroke-width="3.2"/>
<circle clip-path="url(#clip692)" cx="1167.35" cy="219.734" r="21.6" fill="#0c9ffa" fill-rule="evenodd" fill-opacity="1" stroke="#000000" stroke-opacity="1" stroke-width="3.2"/>
<circle clip-path="url(#clip692)" cx="1285.89" cy="163.202" r="21.6" fill="#0c9ffa" fill-rule="evenodd" fill-opacity="1" stroke="#000000" stroke-opacity="1" stroke-width="3.2"/>
<circle clip-path="url(#clip692)" cx="1404.43" cy="217.222" r="21.6" fill="#0c9ffa" fill-rule="evenodd" fill-opacity="1" stroke="#000000" stroke-opacity="1" stroke-width="3.2"/>
<circle clip-path="url(#clip692)" cx="1522.97" cy="364.834" r="21.6" fill="#0c9ffa" fill-rule="evenodd" fill-opacity="1" stroke="#000000" stroke-opacity="1" stroke-width="3.2"/>
<circle clip-path="url(#clip692)" cx="1641.51" cy="553.124" r="21.6" fill="#0c9ffa" fill-rule="evenodd" fill-opacity="1" stroke="#000000" stroke-opacity="1" stroke-width="3.2"/>
<circle clip-path="url(#clip692)" cx="1760.06" cy="760.711" r="21.6" fill="#0c9ffa" fill-rule="evenodd" fill-opacity="1" stroke="#000000" stroke-opacity="1" stroke-width="3.2"/>
<circle clip-path="url(#clip692)" cx="1878.6" cy="956.6" r="21.6" fill="#0c9ffa" fill-rule="evenodd" fill-opacity="1" stroke="#000000" stroke-opacity="1" stroke-width="3.2"/>
<circle clip-path="url(#clip692)" cx="1997.14" cy="1157.09" r="21.6" fill="#0c9ffa" fill-rule="evenodd" fill-opacity="1" stroke="#000000" stroke-opacity="1" stroke-width="3.2"/>
<circle clip-path="url(#clip692)" cx="2115.68" cy="1384.24" r="21.6" fill="#0c9ffa" fill-rule="evenodd" fill-opacity="1" stroke="#000000" stroke-opacity="1" stroke-width="3.2"/>
<polyline clip-path="url(#clip692)" style="stroke:#0c9ffa; stroke-linecap:round; stroke-linejoin:round; stroke-width:4; stroke-opacity:1; fill:none" stroke-dasharray="16, 10" points="456.113,1348.78 574.653,1154.56 693.194,960.382 811.734,766.422 930.274,573.315 1048.81,383.623 1167.35,207.589 1285.89,86.1857 1404.43,207.589 1522.97,383.623 1641.51,573.315 1760.06,766.422 1878.6,960.382 1997.14,1154.56 2115.68,1348.78 "/>
<path clip-path="url(#clip690)" d="M1575.39 324.838 L2281.63 324.838 L2281.63 93.1086 L1575.39 93.1086  Z" fill="#ffffff" fill-rule="evenodd" fill-opacity="1"/>
<polyline clip-path="url(#clip690)" style="stroke:#000000; stroke-linecap:round; stroke-linejoin:round; stroke-width:4; stroke-opacity:1; fill:none" points="1575.39,324.838 2281.63,324.838 2281.63,93.1086 1575.39,93.1086 1575.39,324.838 "/>
<polyline clip-path="url(#clip690)" style="stroke:#ff0000; stroke-linecap:round; stroke-linejoin:round; stroke-width:4; stroke-opacity:1; fill:none" stroke-dasharray="16, 10" points="1599.1,170.352 1741.34,170.352 "/>
<path clip-path="url(#clip690)" d="M1794.77 147.163 Q1794.96 147.374 1794.96 147.585 Q1794.96 147.796 1794.49 148.405 Q1794.05 149.014 1793.09 149.834 Q1792.13 150.653 1790.88 151.426 Q1789.64 152.199 1787.82 152.715 Q1785.99 153.253 1784.07 153.253 Q1780.48 153.253 1778.38 150.888 Q1776.29 148.522 1776.29 145.126 Q1776.29 141.823 1778.14 138.661 Q1779.99 135.476 1782.99 133.508 Q1785.99 131.517 1789.15 131.517 Q1791.66 131.517 1793.23 132.688 Q1794.8 133.859 1794.8 135.64 Q1794.8 137.022 1794 137.865 Q1793.2 138.708 1792.13 138.708 Q1791.38 138.708 1790.86 138.286 Q1790.35 137.841 1790.35 137.022 Q1790.35 135.968 1791.21 135.148 Q1791.54 134.82 1791.92 134.679 Q1792.31 134.515 1792.55 134.515 Q1792.78 134.492 1793.32 134.492 Q1792.83 133.578 1791.66 133.087 Q1790.51 132.571 1789.2 132.571 Q1787.25 132.571 1785.4 133.93 Q1783.55 135.265 1782.43 137.373 Q1781.3 139.434 1780.58 142.362 Q1779.85 145.266 1779.85 146.953 Q1779.85 149.271 1780.93 150.724 Q1782.01 152.176 1784.16 152.176 Q1784.58 152.176 1785.03 152.152 Q1785.5 152.129 1786.67 151.871 Q1787.86 151.614 1788.92 151.169 Q1789.97 150.724 1791.31 149.763 Q1792.66 148.78 1793.74 147.445 Q1794.12 146.953 1794.37 146.953 Q1794.59 146.953 1794.77 147.163 Z" fill="#000000" fill-rule="nonzero" fill-opacity="1" /><path clip-path="url(#clip690)" d="M1775.29 166.046 L1800.12 166.046 L1800.12 163.486 L1775.29 163.486  Z" fill="#000000" fill-rule="evenodd" fill-opacity="1"/>
<path clip-path="url(#clip690)" d="M1775.29 201.462 Q1775.29 200.033 1776.11 199.354 Q1776.93 198.675 1777.99 198.675 Q1779.09 198.675 1779.86 199.401 Q1780.66 200.103 1780.66 201.345 Q1780.66 202.68 1779.72 203.429 Q1778.81 204.179 1777.49 203.991 Q1778.64 205.912 1780.75 206.779 Q1782.88 207.645 1784.85 207.645 Q1786.91 207.645 1788.57 205.865 Q1790.26 204.085 1790.26 199.729 Q1790.26 196.028 1788.81 193.896 Q1787.38 191.765 1784.54 191.765 L1782.44 191.765 Q1781.71 191.765 1781.5 191.695 Q1781.29 191.624 1781.29 191.226 Q1781.29 190.758 1782.01 190.664 Q1782.74 190.664 1783.89 190.524 Q1786.68 190.43 1788.15 188.017 Q1789.49 185.769 1789.49 182.56 Q1789.49 179.632 1788.08 178.414 Q1786.7 177.173 1784.9 177.173 Q1783.21 177.173 1781.36 177.875 Q1779.51 178.578 1778.5 180.147 Q1781.48 180.147 1781.48 182.56 Q1781.48 183.614 1780.8 184.317 Q1780.14 184.996 1779.04 184.996 Q1777.99 184.996 1777.28 184.34 Q1776.58 183.661 1776.58 182.513 Q1776.58 179.773 1779.02 177.875 Q1781.48 175.978 1785.08 175.978 Q1788.64 175.978 1791.27 177.852 Q1793.91 179.726 1793.91 182.607 Q1793.91 185.441 1792.04 187.76 Q1790.17 190.079 1787.19 191.039 Q1790.84 191.765 1793.02 194.248 Q1795.2 196.707 1795.2 199.729 Q1795.2 203.476 1792.25 206.24 Q1789.3 208.98 1784.99 208.98 Q1781.01 208.98 1778.15 206.826 Q1775.29 204.671 1775.29 201.462 Z" fill="#000000" fill-rule="nonzero" fill-opacity="1" /><path clip-path="url(#clip690)" d="M1810.94 176.649 L1810.94 175.173 Q1813.49 175.173 1814.08 174.869 Q1814.66 174.541 1814.66 172.995 L1814.66 148.05 Q1814.66 146.27 1814.03 145.825 Q1813.42 145.38 1810.94 145.38 L1810.94 143.881 L1817.82 143.365 L1817.82 172.995 Q1817.82 174.541 1818.43 174.869 Q1819.04 175.173 1821.57 175.173 L1821.57 176.649 Q1820.99 176.649 1819.77 176.602 Q1818.55 176.555 1817.66 176.532 Q1816.77 176.508 1816.25 176.508 Q1815.69 176.508 1810.94 176.649 Z" fill="#000000" fill-rule="nonzero" fill-opacity="1" /><path clip-path="url(#clip690)" d="M1824.47 176.649 L1824.47 175.173 Q1827.03 175.173 1827.61 174.869 Q1828.2 174.541 1828.2 172.995 L1828.2 160.136 Q1828.2 158.356 1827.56 157.911 Q1826.95 157.466 1824.47 157.466 L1824.47 155.967 L1831.22 155.451 L1831.22 160.487 Q1833.47 155.451 1838.31 155.451 Q1841.92 155.451 1843.35 157.231 Q1844.4 158.426 1844.62 159.761 Q1844.85 161.096 1844.85 164.563 L1844.85 173.721 Q1844.9 174.728 1845.67 174.962 Q1846.44 175.173 1848.6 175.173 L1848.6 176.649 Q1843.7 176.508 1843.21 176.508 Q1842.84 176.508 1837.8 176.649 L1837.8 175.173 Q1840.35 175.173 1840.94 174.869 Q1841.55 174.541 1841.55 172.995 L1841.55 161.822 Q1841.55 159.386 1840.8 157.958 Q1840.05 156.505 1837.99 156.505 Q1835.5 156.505 1833.51 158.59 Q1831.52 160.675 1831.52 164.188 L1831.52 172.995 Q1831.52 174.541 1832.11 174.869 Q1832.72 175.173 1835.25 175.173 L1835.25 176.649 Q1830.35 176.508 1829.88 176.508 Q1829.51 176.508 1824.47 176.649 Z" fill="#000000" fill-rule="nonzero" fill-opacity="1" /><path clip-path="url(#clip690)" d="M1862.22 176.016 L1862.22 169.692 Q1862.22 169.153 1862.25 168.966 Q1862.27 168.779 1862.41 168.638 Q1862.55 168.498 1862.83 168.498 Q1863.16 168.498 1863.28 168.638 Q1863.42 168.779 1863.51 169.317 Q1864.24 172.62 1865.78 174.377 Q1867.35 176.11 1870.19 176.11 Q1872.88 176.11 1874.24 174.915 Q1875.6 173.721 1875.6 171.753 Q1875.6 168.24 1870.61 167.35 Q1867.73 166.764 1866.53 166.39 Q1865.34 165.991 1864.28 165.125 Q1862.22 163.438 1862.22 161.049 Q1862.22 158.66 1864.03 156.903 Q1865.85 155.147 1869.88 155.147 Q1872.58 155.147 1874.4 156.505 Q1874.94 156.084 1875.22 155.732 Q1875.86 155.147 1876.18 155.147 Q1876.56 155.147 1876.63 155.404 Q1876.7 155.639 1876.7 156.318 L1876.7 161.143 Q1876.7 161.682 1876.68 161.869 Q1876.65 162.056 1876.51 162.197 Q1876.37 162.314 1876.07 162.314 Q1875.53 162.314 1875.5 161.869 Q1875.13 156.06 1869.88 156.06 Q1867.05 156.06 1865.78 157.161 Q1864.52 158.239 1864.52 159.714 Q1864.52 160.534 1864.89 161.166 Q1865.29 161.775 1865.78 162.15 Q1866.3 162.501 1867.24 162.853 Q1868.17 163.181 1868.74 163.298 Q1869.32 163.415 1870.42 163.649 Q1874.26 164.375 1875.88 165.945 Q1877.89 167.959 1877.89 170.512 Q1877.89 173.346 1875.97 175.267 Q1874.05 177.187 1870.19 177.187 Q1867.07 177.187 1864.89 175.103 Q1864.61 175.384 1864.4 175.641 Q1864.19 175.876 1864.1 175.969 Q1864.03 176.063 1864 176.133 Q1863.98 176.18 1863.93 176.227 Q1862.97 177.187 1862.74 177.187 Q1862.36 177.187 1862.29 176.93 Q1862.22 176.695 1862.22 176.016 Z" fill="#000000" fill-rule="nonzero" fill-opacity="1" /><path clip-path="url(#clip690)" d="M1879.77 176.649 L1879.77 175.173 Q1882.32 175.173 1882.9 174.869 Q1883.49 174.541 1883.49 172.995 L1883.49 160.089 Q1883.49 158.309 1882.88 157.887 Q1882.3 157.466 1879.95 157.466 L1879.95 155.967 L1886.65 155.451 L1886.65 173.042 Q1886.65 174.47 1887.17 174.822 Q1887.68 175.173 1890.02 175.173 L1890.02 176.649 Q1885.13 176.508 1885.04 176.508 Q1884.38 176.508 1879.77 176.649 M1881.78 147.089 Q1881.78 146.129 1882.51 145.356 Q1883.26 144.56 1884.31 144.56 Q1885.36 144.56 1886.11 145.286 Q1886.86 145.989 1886.86 147.113 Q1886.86 148.214 1886.11 148.94 Q1885.36 149.643 1884.31 149.643 Q1883.21 149.643 1882.48 148.87 Q1881.78 148.097 1881.78 147.089 Z" fill="#000000" fill-rule="nonzero" fill-opacity="1" /><path clip-path="url(#clip690)" d="M1893.3 176.649 L1893.3 175.173 Q1895.85 175.173 1896.44 174.869 Q1897.02 174.541 1897.02 172.995 L1897.02 160.136 Q1897.02 158.356 1896.39 157.911 Q1895.78 157.466 1893.3 157.466 L1893.3 155.967 L1900.05 155.451 L1900.05 160.487 Q1902.29 155.451 1907.14 155.451 Q1910.75 155.451 1912.18 157.231 Q1913.23 158.426 1913.44 159.761 Q1913.68 161.096 1913.68 164.563 L1913.68 173.721 Q1913.72 174.728 1914.5 174.962 Q1915.27 175.173 1917.43 175.173 L1917.43 176.649 Q1912.53 176.508 1912.04 176.508 Q1911.66 176.508 1906.63 176.649 L1906.63 175.173 Q1909.18 175.173 1909.77 174.869 Q1910.38 174.541 1910.38 172.995 L1910.38 161.822 Q1910.38 159.386 1909.63 157.958 Q1908.88 156.505 1906.81 156.505 Q1904.33 156.505 1902.34 158.59 Q1900.35 160.675 1900.35 164.188 L1900.35 172.995 Q1900.35 174.541 1900.94 174.869 Q1901.54 175.173 1904.07 175.173 L1904.07 176.649 Q1899.18 176.508 1898.71 176.508 Q1898.34 176.508 1893.3 176.649 Z" fill="#000000" fill-rule="nonzero" fill-opacity="1" /><path clip-path="url(#clip690)" d="M1925.35 164.656 Q1925.35 156.552 1928.37 150.017 Q1929.66 147.277 1931.46 144.981 Q1933.27 142.686 1934.46 141.679 Q1935.66 140.672 1935.98 140.672 Q1936.45 140.672 1936.48 141.14 Q1936.48 141.374 1935.84 141.96 Q1928.11 149.83 1928.14 164.656 Q1928.14 179.53 1935.66 187.095 Q1936.48 187.915 1936.48 188.172 Q1936.48 188.641 1935.98 188.641 Q1935.66 188.641 1934.51 187.681 Q1933.36 186.72 1931.58 184.519 Q1929.8 182.317 1928.51 179.623 Q1925.35 173.088 1925.35 164.656 Z" fill="#000000" fill-rule="nonzero" fill-opacity="1" /><path clip-path="url(#clip690)" d="M1966.02 157.114 Q1966.02 158.754 1963.68 158.754 L1958.2 158.754 Q1957.36 162.642 1957.36 166.39 Q1957.36 170.863 1958.74 174.306 Q1959.02 174.986 1959.02 175.36 Q1959.02 176.063 1958.39 176.625 Q1957.78 177.187 1957.05 177.187 Q1956.44 177.187 1956.04 176.719 Q1955.67 176.25 1955.34 174.775 Q1954.94 173.042 1954.94 171.121 Q1954.94 168.826 1955.32 166.624 Q1955.69 164.399 1956.96 158.754 L1951.55 158.754 L1948.85 169.364 Q1947.89 172.948 1947.57 174.049 Q1947.35 174.705 1947.28 174.915 Q1947.21 175.126 1947 175.641 Q1946.82 176.133 1946.68 176.321 Q1946.54 176.485 1946.3 176.742 Q1946.07 177.023 1945.79 177.094 Q1945.5 177.187 1945.15 177.187 Q1944.61 177.187 1944.19 176.836 Q1943.77 176.508 1943.77 175.876 Q1943.77 175.454 1944.15 174.728 Q1948.6 165.125 1950.28 158.754 L1947.57 158.754 Q1943.82 158.754 1941.48 162.455 Q1941.1 162.946 1940.89 162.993 Q1940.8 163.017 1940.7 163.017 Q1940.45 163.017 1940.28 162.9 Q1940.14 162.783 1940.14 162.665 L1940.12 162.548 Q1940.12 162.408 1940.47 161.775 Q1940.84 161.12 1941.55 160.112 Q1942.27 159.105 1943.05 158.239 Q1943.79 157.442 1944.52 156.95 Q1945.27 156.435 1945.97 156.248 Q1946.68 156.06 1947.07 156.013 Q1947.47 155.967 1948.03 155.967 L1964.1 155.967 Q1964.71 155.967 1965.04 156.013 Q1965.37 156.037 1965.69 156.318 Q1966.02 156.576 1966.02 157.114 Z" fill="#000000" fill-rule="nonzero" fill-opacity="1" /><path clip-path="url(#clip690)" d="M1979.94 143.881 L1973.03 171.613 Q1972.75 172.714 1972.75 173.908 Q1972.75 176.11 1974.2 176.11 Q1974.88 176.11 1975.44 175.665 Q1976 175.196 1976.43 174.283 Q1976.87 173.346 1977.15 172.456 Q1977.46 171.566 1977.83 170.184 Q1977.95 169.645 1978.07 169.481 Q1978.18 169.317 1978.51 169.317 Q1979.1 169.317 1979.1 169.786 Q1978.51 172.667 1977.64 174.494 Q1976.38 177.187 1974.04 177.187 Q1972.28 177.187 1970.97 175.969 Q1969.68 174.728 1969.68 172.76 Q1969.68 172.011 1969.91 171.121 L1975.96 147.136 L1976.12 146.199 Q1976.12 145.942 1976.03 145.801 Q1975.93 145.661 1975.37 145.52 Q1974.83 145.38 1973.76 145.38 Q1973.31 145.38 1973.1 145.356 Q1972.91 145.333 1972.72 145.216 Q1972.56 145.099 1972.56 144.841 Q1972.56 144.419 1972.72 144.185 Q1972.91 143.951 1973.05 143.904 Q1973.19 143.857 1973.47 143.834 Q1973.87 143.81 1975.21 143.693 Q1976.54 143.553 1977.69 143.459 Q1978.84 143.365 1979.33 143.365 Q1979.61 143.365 1979.75 143.506 Q1979.92 143.623 1979.94 143.764 L1979.94 143.881 Z" fill="#000000" fill-rule="nonzero" fill-opacity="1" /><path clip-path="url(#clip690)" d="M1983.83 187.962 Q1983.83 187.727 1984.02 187.212 L2000.95 141.96 Q2000.95 141.913 2001.07 141.655 Q2001.18 141.398 2001.25 141.234 Q2001.32 141.047 2001.47 140.906 Q2001.63 140.765 2001.82 140.765 Q2002.28 140.765 2002.28 141.351 Q2002.28 141.398 2002.14 141.96 L1985.16 187.259 Q1984.88 188.079 1984.69 188.313 Q1984.53 188.547 1984.25 188.547 Q1983.83 188.547 1983.83 187.962 Z" fill="#000000" fill-rule="nonzero" fill-opacity="1" /><path clip-path="url(#clip690)" d="M2036.55 164.797 Q2036.55 164.937 2036.36 165.476 L2032.57 175.829 Q2032.36 176.438 2032.15 176.555 Q2031.94 176.649 2031.07 176.649 L2008.87 176.649 Q2008.33 176.649 2008.12 176.625 Q2007.91 176.602 2007.74 176.485 Q2007.58 176.368 2007.58 176.11 Q2007.58 175.641 2007.74 175.431 Q2007.93 175.22 2008.14 175.196 Q2008.35 175.173 2008.87 175.173 Q2010.04 175.173 2010.74 175.103 Q2011.44 175.032 2011.89 174.939 Q2012.36 174.822 2012.59 174.494 Q2012.85 174.166 2012.97 173.885 Q2013.08 173.58 2013.25 172.901 L2019.66 147.136 Q2019.85 146.363 2019.85 146.246 Q2019.85 145.801 2019.57 145.684 Q2019.31 145.544 2018.56 145.473 L2016.74 145.38 Q2016.17 145.38 2015.94 145.356 Q2015.73 145.333 2015.57 145.216 Q2015.4 145.099 2015.4 144.841 Q2015.4 144.396 2015.57 144.185 Q2015.75 143.951 2015.89 143.927 Q2016.06 143.881 2016.31 143.881 L2022.69 144.021 L2029.78 143.881 Q2030.56 143.881 2030.56 144.466 Q2030.56 145.122 2030.23 145.263 Q2029.9 145.38 2028.73 145.38 Q2026.48 145.38 2025.45 145.614 Q2024.44 145.848 2024.16 146.246 Q2023.9 146.621 2023.65 147.628 L2017.16 173.533 Q2016.92 174.4 2016.92 174.634 Q2016.92 174.892 2017.04 174.986 Q2017.18 175.056 2017.56 175.103 Q2017.98 175.173 2018.61 175.173 L2023.11 175.173 Q2024.47 175.173 2025.66 174.962 Q2026.85 174.751 2027.77 174.447 Q2028.71 174.142 2029.55 173.58 Q2030.39 173.018 2030.98 172.526 Q2031.59 172.011 2032.17 171.215 Q2032.78 170.395 2033.13 169.833 Q2033.51 169.247 2033.93 168.31 Q2034.35 167.35 2034.56 166.811 Q2034.79 166.249 2035.15 165.289 Q2035.36 164.797 2035.43 164.656 Q2035.5 164.516 2035.61 164.399 Q2035.76 164.282 2035.97 164.282 Q2036.25 164.282 2036.39 164.446 Q2036.55 164.609 2036.55 164.797 Z" fill="#000000" fill-rule="nonzero" fill-opacity="1" /><path clip-path="url(#clip690)" d="M2040.68 188.172 Q2040.68 187.938 2041.29 187.353 Q2049.02 179.483 2049.02 164.656 Q2049.02 149.783 2041.59 142.264 Q2040.68 141.398 2040.68 141.14 Q2040.68 140.672 2041.15 140.672 Q2041.47 140.672 2042.62 141.632 Q2043.79 142.592 2045.55 144.794 Q2047.33 146.996 2048.64 149.689 Q2051.8 156.224 2051.8 164.656 Q2051.8 172.76 2048.78 179.295 Q2047.49 182.036 2045.69 184.331 Q2043.89 186.627 2042.69 187.634 Q2041.5 188.641 2041.15 188.641 Q2040.68 188.641 2040.68 188.172 Z" fill="#000000" fill-rule="nonzero" fill-opacity="1" /><path clip-path="url(#clip690)" d="M2059.77 175.876 Q2059.09 175.103 2059.09 174.096 Q2059.09 173.088 2059.75 172.339 Q2060.43 171.566 2061.65 171.566 Q2063.07 171.566 2063.89 172.948 Q2064.71 174.306 2064.71 176.602 Q2064.71 179.085 2063.71 181.38 Q2062.7 183.699 2061.72 184.8 Q2060.73 185.9 2060.33 185.9 Q2059.87 185.9 2059.87 185.385 Q2059.87 185.198 2060.19 184.846 Q2063.64 181.146 2063.66 176.602 Q2063.66 175.876 2063.57 175.876 L2063.45 175.969 Q2062.63 176.649 2061.65 176.649 Q2060.45 176.649 2059.77 175.876 Z" fill="#000000" fill-rule="nonzero" fill-opacity="1" /><path clip-path="url(#clip690)" d="M2098.33 171.098 Q2098.51 171.308 2098.51 171.519 Q2098.51 171.73 2098.05 172.339 Q2097.6 172.948 2096.64 173.768 Q2095.68 174.587 2094.44 175.36 Q2093.2 176.133 2091.37 176.649 Q2089.54 177.187 2087.62 177.187 Q2084.04 177.187 2081.93 174.822 Q2079.85 172.456 2079.85 169.06 Q2079.85 165.757 2081.7 162.595 Q2083.55 159.41 2086.55 157.442 Q2089.54 155.451 2092.71 155.451 Q2095.21 155.451 2096.78 156.622 Q2098.35 157.794 2098.35 159.574 Q2098.35 160.956 2097.55 161.799 Q2096.76 162.642 2095.68 162.642 Q2094.93 162.642 2094.42 162.22 Q2093.9 161.775 2093.9 160.956 Q2093.9 159.902 2094.77 159.082 Q2095.09 158.754 2095.47 158.613 Q2095.87 158.449 2096.1 158.449 Q2096.34 158.426 2096.87 158.426 Q2096.38 157.512 2095.21 157.021 Q2094.06 156.505 2092.75 156.505 Q2090.81 156.505 2088.96 157.864 Q2087.11 159.199 2085.98 161.307 Q2084.86 163.368 2084.13 166.296 Q2083.41 169.2 2083.41 170.887 Q2083.41 173.206 2084.48 174.658 Q2085.56 176.11 2087.72 176.11 Q2088.14 176.11 2088.58 176.086 Q2089.05 176.063 2090.22 175.805 Q2091.42 175.548 2092.47 175.103 Q2093.53 174.658 2094.86 173.697 Q2096.22 172.714 2097.3 171.379 Q2097.67 170.887 2097.93 170.887 Q2098.14 170.887 2098.33 171.098 Z" fill="#000000" fill-rule="nonzero" fill-opacity="1" /><path clip-path="url(#clip690)" d="M2113.7 169.364 Q2113.75 168.779 2114.66 168.779 L2144.06 168.779 Q2145.44 168.779 2145.46 169.317 Q2145.46 169.903 2144.15 169.88 L2114.99 169.88 Q2113.7 169.903 2113.7 169.364 M2113.7 159.995 Q2113.7 159.41 2114.71 159.433 L2144.01 159.433 Q2145.44 159.433 2145.46 159.995 Q2145.46 160.534 2144.24 160.534 L2114.66 160.534 Q2113.7 160.534 2113.7 159.995 Z" fill="#000000" fill-rule="nonzero" fill-opacity="1" /><path clip-path="url(#clip690)" d="M2163.95 149.268 L2163.95 147.769 Q2169.71 147.769 2172.69 144.7 Q2173.51 144.7 2173.65 144.888 Q2173.79 145.075 2173.79 145.942 L2173.79 172.854 Q2173.79 174.283 2174.49 174.728 Q2175.19 175.173 2178.26 175.173 L2179.79 175.173 L2179.79 176.649 Q2178.1 176.508 2172.01 176.508 Q2165.92 176.508 2164.26 176.649 L2164.26 175.173 L2165.78 175.173 Q2168.8 175.173 2169.53 174.751 Q2170.25 174.306 2170.25 172.854 L2170.25 148.003 Q2167.75 149.268 2163.95 149.268 Z" fill="#000000" fill-rule="nonzero" fill-opacity="1" /><path clip-path="url(#clip690)" d="M2183.55 175.876 Q2182.83 175.103 2182.83 174.096 Q2182.83 173.088 2183.55 172.362 Q2184.28 171.613 2185.38 171.613 Q2186.43 171.613 2187.14 172.315 Q2187.86 172.995 2187.86 174.119 Q2187.86 175.22 2187.09 175.946 Q2186.34 176.649 2185.38 176.649 Q2184.28 176.649 2183.55 175.876 Z" fill="#000000" fill-rule="nonzero" fill-opacity="1" /><path clip-path="url(#clip690)" d="M2196.02 169.411 Q2196.02 164.047 2202.93 160.581 Q2199.96 158.566 2199.42 157.981 Q2197.31 155.639 2197.31 152.711 Q2197.31 149.361 2199.84 147.043 Q2202.4 144.7 2206 144.7 Q2209.45 144.7 2212.05 146.691 Q2214.64 148.682 2214.64 151.844 Q2214.64 156.295 2208.84 159.293 Q2212.68 161.682 2213.59 162.689 Q2215.93 165.289 2215.93 168.591 Q2215.93 172.433 2212.98 175.079 Q2210.03 177.703 2205.96 177.703 Q2201.97 177.703 2199 175.384 Q2196.02 173.065 2196.02 169.411 M2198.41 169.411 Q2198.41 172.386 2200.64 174.377 Q2202.89 176.368 2206 176.368 Q2209.02 176.368 2211.27 174.634 Q2213.54 172.901 2213.54 170.325 Q2213.54 169.317 2213.19 168.451 Q2212.86 167.584 2212.19 166.905 Q2211.53 166.202 2211.11 165.898 Q2210.71 165.57 2209.94 165.031 L2204.03 161.307 Q2198.41 164.422 2198.41 169.411 M2199.42 150.837 Q2199.42 153.132 2201.83 154.725 L2207.78 158.566 Q2212.54 155.779 2212.54 151.844 Q2212.54 149.291 2210.59 147.605 Q2208.65 145.895 2205.96 145.895 Q2203.31 145.895 2201.36 147.3 Q2199.42 148.682 2199.42 150.837 Z" fill="#000000" fill-rule="nonzero" fill-opacity="1" /><path clip-path="url(#clip690)" d="M2219.77 155.498 Q2219.77 152.945 2220.52 151.212 Q2221.27 149.455 2222.84 147.722 Q2225.72 144.7 2229.89 144.7 Q2231.67 144.7 2233.24 145.45 Q2234.83 146.199 2236.33 147.909 Q2237.86 149.596 2238.77 152.945 Q2239.68 156.271 2239.68 160.862 Q2239.68 168.287 2236.08 172.995 Q2232.49 177.703 2227.64 177.703 Q2224.58 177.703 2222.77 176.321 Q2220.97 174.915 2220.97 172.526 Q2220.97 171.285 2221.67 170.77 Q2222.37 170.231 2223.17 170.231 Q2224.04 170.231 2224.72 170.816 Q2225.4 171.379 2225.4 172.433 Q2225.4 173.299 2224.83 173.978 Q2224.29 174.634 2222.89 174.634 Q2224.27 176.368 2227.6 176.368 Q2228.79 176.368 2229.99 175.829 Q2231.18 175.267 2232.47 173.932 Q2233.78 172.573 2234.58 169.739 Q2235.37 166.905 2235.37 162.923 L2235.37 161.401 Q2233.45 166.202 2229.38 166.202 Q2225.35 166.202 2222.56 163.11 Q2219.77 160.019 2219.77 155.498 M2224.08 155.545 Q2224.08 160.3 2224.95 162.056 Q2226.43 165.078 2229.42 165.078 Q2232.35 165.078 2233.8 162.478 Q2235.28 159.855 2235.28 156.458 Q2235.28 151.751 2234.51 149.689 Q2233.08 145.895 2229.89 145.895 Q2226.73 145.895 2225.09 148.916 Q2224.08 150.697 2224.08 155.545 Z" fill="#000000" fill-rule="nonzero" fill-opacity="1" /><polyline clip-path="url(#clip690)" style="stroke:#0c9ffa; stroke-linecap:round; stroke-linejoin:round; stroke-width:4; stroke-opacity:1; fill:none" stroke-dasharray="16, 10" points="1599.1,247.595 1741.34,247.595 "/>
<path clip-path="url(#clip690)" d="M1791.96 248.733 Q1791.92 248.968 1791.82 249.389 Q1791.73 249.787 1791.31 251.052 Q1790.89 252.317 1790.33 253.605 Q1789.79 254.87 1788.73 256.65 Q1787.7 258.407 1786.44 260 Q1786.09 260.421 1786.02 260.679 Q1785.97 260.913 1785.97 261.686 Q1785.97 266.558 1787.44 266.558 Q1787.51 266.558 1787.63 266.558 Q1787.77 266.534 1788.12 266.417 Q1788.5 266.277 1788.83 266.066 Q1789.15 265.832 1789.53 265.363 Q1789.9 264.871 1790.14 264.216 Q1790.35 263.747 1790.77 263.747 Q1791.33 263.747 1791.33 264.216 Q1791.33 265.059 1790.16 266.347 Q1788.99 267.635 1787.3 267.635 Q1785.69 267.635 1784.54 266.581 Q1783.42 265.504 1782.95 263.583 Q1777.89 267.635 1772.83 267.635 Q1769.27 267.635 1767.16 265.316 Q1765.05 262.974 1765.05 259.508 Q1765.05 256.182 1766.88 253.02 Q1768.73 249.858 1771.73 247.89 Q1774.75 245.899 1777.96 245.899 Q1779.08 245.899 1780.16 246.204 Q1781.24 246.485 1782.31 247.211 Q1783.39 247.937 1784.19 249.038 Q1784.98 250.139 1785.48 251.872 Q1785.97 253.605 1785.97 255.783 L1785.97 258.758 Q1789.06 254.847 1790.68 249.249 Q1790.91 248.405 1791.05 248.312 Q1791.14 248.241 1791.38 248.241 Q1791.61 248.241 1791.75 248.382 Q1791.92 248.499 1791.94 248.616 L1791.96 248.733 M1782.76 262.342 Q1782.67 261.522 1782.67 256.978 Q1782.67 256.111 1782.67 255.643 Q1782.67 255.151 1782.62 254.214 Q1782.57 253.277 1782.48 252.692 Q1782.41 252.106 1782.24 251.263 Q1782.08 250.42 1781.85 249.881 Q1781.61 249.342 1781.24 248.733 Q1780.89 248.124 1780.42 247.773 Q1779.97 247.422 1779.32 247.187 Q1778.68 246.953 1777.91 246.953 Q1776.95 246.953 1775.94 247.305 Q1774.96 247.632 1773.7 248.686 Q1772.43 249.717 1771.38 251.357 Q1770.28 253.09 1769.43 256.275 Q1768.61 259.437 1768.61 261.335 Q1768.61 263.724 1769.71 265.152 Q1770.81 266.558 1772.92 266.558 Q1777.96 266.558 1782.76 262.342 Z" fill="#000000" fill-rule="nonzero" fill-opacity="1" /><path clip-path="url(#clip690)" d="M1805.89 234.329 L1798.98 262.061 Q1798.7 263.162 1798.7 264.356 Q1798.7 266.558 1800.15 266.558 Q1800.83 266.558 1801.39 266.113 Q1801.95 265.644 1802.37 264.731 Q1802.82 263.794 1803.1 262.904 Q1803.4 262.014 1803.78 260.632 Q1803.9 260.093 1804.01 259.929 Q1804.13 259.765 1804.46 259.765 Q1805.04 259.765 1805.04 260.234 Q1804.46 263.115 1803.59 264.942 Q1802.33 267.635 1799.98 267.635 Q1798.23 267.635 1796.92 266.417 Q1795.63 265.176 1795.63 263.208 Q1795.63 262.459 1795.86 261.569 L1801.9 237.584 L1802.07 236.647 Q1802.07 236.39 1801.98 236.249 Q1801.88 236.109 1801.32 235.968 Q1800.78 235.828 1799.7 235.828 Q1799.26 235.828 1799.05 235.804 Q1798.86 235.781 1798.67 235.664 Q1798.51 235.546 1798.51 235.289 Q1798.51 234.867 1798.67 234.633 Q1798.86 234.399 1799 234.352 Q1799.14 234.305 1799.42 234.282 Q1799.82 234.258 1801.16 234.141 Q1802.49 234.001 1803.64 233.907 Q1804.79 233.813 1805.28 233.813 Q1805.56 233.813 1805.7 233.954 Q1805.86 234.071 1805.89 234.211 L1805.89 234.329 Z" fill="#000000" fill-rule="nonzero" fill-opacity="1" /><path clip-path="url(#clip690)" d="M1854.75 254.425 Q1855.03 254.706 1855.03 255.104 Q1855.03 255.502 1854.75 255.783 Q1854.47 256.065 1854.07 256.065 L1824.04 256.065 Q1823.64 256.065 1823.36 255.783 Q1823.08 255.502 1823.08 255.104 Q1823.08 254.706 1823.36 254.425 Q1823.64 254.144 1824.04 254.144 L1854.07 254.144 Q1854.47 254.144 1854.75 254.425 Z" fill="#000000" fill-rule="nonzero" fill-opacity="1" /><path clip-path="url(#clip690)" d="M1873.33 267.097 Q1873.33 266.23 1873.4 265.972 Q1873.5 265.715 1873.87 265.316 L1883.08 255.057 Q1888.11 249.389 1888.11 244.447 Q1888.11 241.238 1886.43 238.943 Q1884.76 236.647 1881.69 236.647 Q1879.59 236.647 1877.81 237.936 Q1876.03 239.224 1875.21 241.519 Q1875.35 241.472 1875.84 241.472 Q1877.03 241.472 1877.69 242.222 Q1878.37 242.971 1878.37 243.979 Q1878.37 245.267 1877.52 245.899 Q1876.7 246.508 1875.88 246.508 Q1875.56 246.508 1875.11 246.438 Q1874.69 246.368 1874.01 245.712 Q1873.33 245.033 1873.33 243.838 Q1873.33 240.489 1875.86 237.818 Q1878.41 235.148 1882.3 235.148 Q1886.71 235.148 1889.59 237.772 Q1892.49 240.372 1892.49 244.447 Q1892.49 245.876 1892.05 247.187 Q1891.62 248.476 1891.04 249.483 Q1890.48 250.49 1888.93 252.106 Q1887.39 253.722 1886.14 254.87 Q1884.9 256.018 1882.12 258.454 L1877.03 263.396 L1885.68 263.396 Q1889.89 263.396 1890.22 263.021 Q1890.69 262.342 1891.27 258.758 L1892.49 258.758 L1891.13 267.097 L1873.33 267.097 Z" fill="#000000" fill-rule="nonzero" fill-opacity="1" /><path clip-path="url(#clip690)" d="M1897.42 242.004 Q1897.42 241.398 1897.47 241.217 Q1897.54 241.037 1897.8 240.758 L1904.24 233.577 Q1907.77 229.609 1907.77 226.15 Q1907.77 223.903 1906.59 222.297 Q1905.42 220.69 1903.27 220.69 Q1901.8 220.69 1900.55 221.592 Q1899.31 222.493 1898.73 224.1 Q1898.83 224.067 1899.18 224.067 Q1900.01 224.067 1900.47 224.592 Q1900.95 225.117 1900.95 225.822 Q1900.95 226.723 1900.36 227.166 Q1899.78 227.592 1899.21 227.592 Q1898.98 227.592 1898.67 227.543 Q1898.37 227.494 1897.9 227.035 Q1897.42 226.559 1897.42 225.723 Q1897.42 223.379 1899.19 221.51 Q1900.98 219.64 1903.7 219.64 Q1906.78 219.64 1908.8 221.477 Q1910.83 223.297 1910.83 226.15 Q1910.83 227.15 1910.52 228.068 Q1910.23 228.97 1909.82 229.675 Q1909.42 230.38 1908.34 231.511 Q1907.26 232.642 1906.39 233.446 Q1905.52 234.249 1903.57 235.954 L1900.01 239.414 L1906.06 239.414 Q1909.01 239.414 1909.24 239.151 Q1909.57 238.676 1909.98 236.167 L1910.83 236.167 L1909.88 242.004 L1897.42 242.004 Z" fill="#000000" fill-rule="nonzero" fill-opacity="1" /><path clip-path="url(#clip690)" d="M1921.36 219.067 L1916.52 238.479 Q1916.33 239.25 1916.33 240.086 Q1916.33 241.627 1917.34 241.627 Q1917.82 241.627 1918.21 241.316 Q1918.61 240.988 1918.9 240.348 Q1919.21 239.692 1919.41 239.069 Q1919.62 238.446 1919.89 237.479 Q1919.97 237.102 1920.05 236.987 Q1920.13 236.872 1920.36 236.872 Q1920.77 236.872 1920.77 237.2 Q1920.36 239.217 1919.75 240.496 Q1918.87 242.381 1917.23 242.381 Q1916 242.381 1915.08 241.529 Q1914.18 240.66 1914.18 239.282 Q1914.18 238.758 1914.34 238.135 L1918.57 221.346 L1918.69 220.69 Q1918.69 220.509 1918.62 220.411 Q1918.56 220.313 1918.16 220.214 Q1917.79 220.116 1917.03 220.116 Q1916.72 220.116 1916.57 220.099 Q1916.44 220.083 1916.31 220.001 Q1916.2 219.919 1916.2 219.739 Q1916.2 219.444 1916.31 219.28 Q1916.44 219.116 1916.54 219.083 Q1916.64 219.05 1916.84 219.034 Q1917.11 219.017 1918.05 218.935 Q1918.98 218.837 1919.79 218.771 Q1920.59 218.706 1920.94 218.706 Q1921.13 218.706 1921.23 218.804 Q1921.35 218.886 1921.36 218.985 L1921.36 219.067 Z" fill="#000000" fill-rule="nonzero" fill-opacity="1" /><path clip-path="url(#clip690)" d="M1955.56 233.134 Q1955.76 233.331 1955.76 233.61 Q1955.76 233.888 1955.56 234.085 Q1955.37 234.282 1955.09 234.282 L1934.07 234.282 Q1933.79 234.282 1933.59 234.085 Q1933.4 233.888 1933.4 233.61 Q1933.4 233.331 1933.59 233.134 Q1933.79 232.937 1934.07 232.937 L1955.09 232.937 Q1955.37 232.937 1955.56 233.134 Z" fill="#000000" fill-rule="nonzero" fill-opacity="1" /><path clip-path="url(#clip690)" d="M1988.85 233.708 Q1988.85 233.806 1988.72 234.183 L1986.07 241.43 Q1985.92 241.857 1985.77 241.939 Q1985.62 242.004 1985.02 242.004 L1969.47 242.004 Q1969.1 242.004 1968.95 241.988 Q1968.8 241.971 1968.69 241.889 Q1968.57 241.807 1968.57 241.627 Q1968.57 241.299 1968.69 241.152 Q1968.82 241.004 1968.97 240.988 Q1969.11 240.971 1969.47 240.971 Q1970.29 240.971 1970.79 240.922 Q1971.28 240.873 1971.59 240.807 Q1971.92 240.725 1972.08 240.496 Q1972.26 240.266 1972.34 240.069 Q1972.43 239.856 1972.54 239.381 L1977.03 221.346 Q1977.16 220.805 1977.16 220.723 Q1977.16 220.411 1976.97 220.329 Q1976.79 220.231 1976.26 220.181 L1974.98 220.116 Q1974.59 220.116 1974.43 220.099 Q1974.28 220.083 1974.16 220.001 Q1974.05 219.919 1974.05 219.739 Q1974.05 219.427 1974.16 219.28 Q1974.3 219.116 1974.39 219.099 Q1974.51 219.067 1974.69 219.067 L1979.15 219.165 L1984.12 219.067 Q1984.66 219.067 1984.66 219.476 Q1984.66 219.936 1984.43 220.034 Q1984.2 220.116 1983.38 220.116 Q1981.8 220.116 1981.08 220.28 Q1980.38 220.444 1980.18 220.723 Q1980 220.985 1979.82 221.69 L1975.28 239.824 Q1975.12 240.43 1975.12 240.594 Q1975.12 240.774 1975.2 240.84 Q1975.3 240.889 1975.56 240.922 Q1975.85 240.971 1976.3 240.971 L1979.44 240.971 Q1980.39 240.971 1981.23 240.824 Q1982.07 240.676 1982.71 240.463 Q1983.36 240.25 1983.95 239.856 Q1984.54 239.463 1984.95 239.119 Q1985.38 238.758 1985.79 238.2 Q1986.21 237.627 1986.46 237.233 Q1986.72 236.823 1987.02 236.167 Q1987.31 235.495 1987.46 235.118 Q1987.62 234.724 1987.87 234.052 Q1988.02 233.708 1988.07 233.61 Q1988.12 233.511 1988.2 233.429 Q1988.3 233.347 1988.44 233.347 Q1988.64 233.347 1988.74 233.462 Q1988.85 233.577 1988.85 233.708 Z" fill="#000000" fill-rule="nonzero" fill-opacity="1" /><path clip-path="url(#clip690)" d="M2022.69 233.134 Q2022.88 233.331 2022.88 233.61 Q2022.88 233.888 2022.69 234.085 Q2022.49 234.282 2022.21 234.282 L2001.19 234.282 Q2000.91 234.282 2000.72 234.085 Q2000.52 233.888 2000.52 233.61 Q2000.52 233.331 2000.72 233.134 Q2000.91 232.937 2001.19 232.937 L2022.21 232.937 Q2022.49 232.937 2022.69 233.134 Z" fill="#000000" fill-rule="nonzero" fill-opacity="1" /><path clip-path="url(#clip690)" d="M2035.69 222.838 L2035.69 221.788 Q2039.73 221.788 2041.81 219.64 Q2042.38 219.64 2042.48 219.772 Q2042.58 219.903 2042.58 220.509 L2042.58 239.348 Q2042.58 240.348 2043.07 240.66 Q2043.56 240.971 2045.71 240.971 L2046.78 240.971 L2046.78 242.004 Q2045.6 241.906 2041.33 241.906 Q2037.07 241.906 2035.91 242.004 L2035.91 240.971 L2036.97 240.971 Q2039.09 240.971 2039.6 240.676 Q2040.11 240.365 2040.11 239.348 L2040.11 221.952 Q2038.35 222.838 2035.69 222.838 Z" fill="#000000" fill-rule="nonzero" fill-opacity="1" /><path clip-path="url(#clip690)" d="M2058.12 266.324 Q2057.44 265.551 2057.44 264.543 Q2057.44 263.536 2058.1 262.787 Q2058.77 262.014 2059.99 262.014 Q2061.42 262.014 2062.24 263.396 Q2063.06 264.754 2063.06 267.05 Q2063.06 269.532 2062.05 271.828 Q2061.05 274.147 2060.06 275.248 Q2059.08 276.348 2058.68 276.348 Q2058.21 276.348 2058.21 275.833 Q2058.21 275.646 2058.54 275.294 Q2061.98 271.594 2062.01 267.05 Q2062.01 266.324 2061.91 266.324 L2061.8 266.417 Q2060.98 267.097 2059.99 267.097 Q2058.8 267.097 2058.12 266.324 Z" fill="#000000" fill-rule="nonzero" fill-opacity="1" /><path clip-path="url(#clip690)" d="M2105.11 248.733 Q2105.06 248.968 2104.96 249.389 Q2104.87 249.787 2104.45 251.052 Q2104.03 252.317 2103.47 253.605 Q2102.93 254.87 2101.87 256.65 Q2100.84 258.407 2099.58 260 Q2099.23 260.421 2099.16 260.679 Q2099.11 260.913 2099.11 261.686 Q2099.11 266.558 2100.58 266.558 Q2100.66 266.558 2100.77 266.558 Q2100.91 266.534 2101.26 266.417 Q2101.64 266.277 2101.97 266.066 Q2102.29 265.832 2102.67 265.363 Q2103.04 264.871 2103.28 264.216 Q2103.49 263.747 2103.91 263.747 Q2104.47 263.747 2104.47 264.216 Q2104.47 265.059 2103.3 266.347 Q2102.13 267.635 2100.44 267.635 Q2098.83 267.635 2097.68 266.581 Q2096.56 265.504 2096.09 263.583 Q2091.03 267.635 2085.97 267.635 Q2082.41 267.635 2080.3 265.316 Q2078.19 262.974 2078.19 259.508 Q2078.19 256.182 2080.02 253.02 Q2081.87 249.858 2084.87 247.89 Q2087.89 245.899 2091.1 245.899 Q2092.22 245.899 2093.3 246.204 Q2094.38 246.485 2095.46 247.211 Q2096.53 247.937 2097.33 249.038 Q2098.13 250.139 2098.62 251.872 Q2099.11 253.605 2099.11 255.783 L2099.11 258.758 Q2102.2 254.847 2103.82 249.249 Q2104.05 248.405 2104.19 248.312 Q2104.29 248.241 2104.52 248.241 Q2104.75 248.241 2104.89 248.382 Q2105.06 248.499 2105.08 248.616 L2105.11 248.733 M2095.9 262.342 Q2095.81 261.522 2095.81 256.978 Q2095.81 256.111 2095.81 255.643 Q2095.81 255.151 2095.76 254.214 Q2095.71 253.277 2095.62 252.692 Q2095.55 252.106 2095.39 251.263 Q2095.22 250.42 2094.99 249.881 Q2094.75 249.342 2094.38 248.733 Q2094.03 248.124 2093.56 247.773 Q2093.11 247.422 2092.46 247.187 Q2091.82 246.953 2091.05 246.953 Q2090.09 246.953 2089.08 247.305 Q2088.1 247.632 2086.84 248.686 Q2085.57 249.717 2084.52 251.357 Q2083.42 253.09 2082.57 256.275 Q2081.75 259.437 2081.75 261.335 Q2081.75 263.724 2082.85 265.152 Q2083.95 266.558 2086.06 266.558 Q2091.1 266.558 2095.9 262.342 Z" fill="#000000" fill-rule="nonzero" fill-opacity="1" /><path clip-path="url(#clip690)" d="M2121.88 259.812 Q2121.93 259.227 2122.84 259.227 L2152.24 259.227 Q2153.62 259.227 2153.64 259.765 Q2153.64 260.351 2152.33 260.327 L2123.17 260.327 Q2121.88 260.351 2121.88 259.812 M2121.88 250.443 Q2121.88 249.858 2122.89 249.881 L2152.19 249.881 Q2153.62 249.881 2153.64 250.443 Q2153.64 250.982 2152.42 250.982 L2122.84 250.982 Q2121.88 250.982 2121.88 250.443 Z" fill="#000000" fill-rule="nonzero" fill-opacity="1" /><path clip-path="url(#clip690)" d="M2172.13 251.755 Q2172.13 244.705 2173.91 240.863 Q2176.4 235.148 2182.25 235.148 Q2183.49 235.148 2184.78 235.5 Q2186.09 235.828 2187.73 237.116 Q2189.4 238.404 2190.4 240.512 Q2192.32 244.588 2192.32 251.755 Q2192.32 258.758 2190.54 262.576 Q2187.94 268.151 2182.2 268.151 Q2180.05 268.151 2177.85 267.05 Q2175.67 265.949 2174.29 263.302 Q2172.13 259.344 2172.13 251.755 M2176.11 251.169 Q2176.11 258.407 2176.63 261.288 Q2177.22 264.403 2178.81 265.761 Q2180.42 267.097 2182.2 267.097 Q2184.13 267.097 2185.72 265.668 Q2187.33 264.216 2187.83 261.1 Q2188.36 258.032 2188.34 251.169 Q2188.34 244.494 2187.87 241.824 Q2187.24 238.709 2185.55 237.467 Q2183.89 236.202 2182.2 236.202 Q2181.57 236.202 2180.89 236.39 Q2180.24 236.577 2179.28 237.116 Q2178.32 237.654 2177.57 238.99 Q2176.84 240.325 2176.49 242.339 Q2176.11 244.939 2176.11 251.169 Z" fill="#000000" fill-rule="nonzero" fill-opacity="1" /><path clip-path="url(#clip690)" d="M2196.61 266.324 Q2195.88 265.551 2195.88 264.543 Q2195.88 263.536 2196.61 262.81 Q2197.33 262.061 2198.44 262.061 Q2199.49 262.061 2200.19 262.763 Q2200.92 263.443 2200.92 264.567 Q2200.92 265.668 2200.15 266.394 Q2199.4 267.097 2198.44 267.097 Q2197.33 267.097 2196.61 266.324 Z" fill="#000000" fill-rule="nonzero" fill-opacity="1" /><path clip-path="url(#clip690)" d="M2209.08 259.18 L2209.08 257.704 L2223.81 235.195 Q2224.19 234.61 2224.77 234.633 Q2225.31 234.633 2225.43 234.844 Q2225.55 235.055 2225.55 235.874 L2225.55 257.704 L2230.35 257.704 L2230.35 259.18 L2225.55 259.18 L2225.55 263.349 Q2225.55 264.731 2226.11 265.176 Q2226.69 265.621 2229.18 265.621 L2230.18 265.621 L2230.18 267.097 Q2228.22 266.956 2223.67 266.956 Q2219.15 266.956 2217.18 267.097 L2217.18 265.621 L2218.19 265.621 Q2220.67 265.621 2221.26 265.199 Q2221.85 264.754 2221.85 263.349 L2221.85 259.18 L2209.08 259.18 M2210.44 257.704 L2222.13 257.704 L2222.13 239.809 L2210.44 257.704 Z" fill="#000000" fill-rule="nonzero" fill-opacity="1" /><path clip-path="url(#clip690)" d="M2234.17 267.097 Q2234.17 266.23 2234.24 265.972 Q2234.34 265.715 2234.71 265.316 L2243.92 255.057 Q2248.95 249.389 2248.95 244.447 Q2248.95 241.238 2247.27 238.943 Q2245.6 236.647 2242.54 236.647 Q2240.43 236.647 2238.65 237.936 Q2236.87 239.224 2236.05 241.519 Q2236.19 241.472 2236.68 241.472 Q2237.87 241.472 2238.53 242.222 Q2239.21 242.971 2239.21 243.979 Q2239.21 245.267 2238.37 245.899 Q2237.55 246.508 2236.73 246.508 Q2236.4 246.508 2235.95 246.438 Q2235.53 246.368 2234.85 245.712 Q2234.17 245.033 2234.17 243.838 Q2234.17 240.489 2236.7 237.818 Q2239.26 235.148 2243.14 235.148 Q2247.55 235.148 2250.43 237.772 Q2253.33 240.372 2253.33 244.447 Q2253.33 245.876 2252.89 247.187 Q2252.47 248.476 2251.88 249.483 Q2251.32 250.49 2249.77 252.106 Q2248.23 253.722 2246.99 254.87 Q2245.74 256.018 2242.96 258.454 L2237.87 263.396 L2246.52 263.396 Q2250.73 263.396 2251.06 263.021 Q2251.53 262.342 2252.12 258.758 L2253.33 258.758 L2251.97 267.097 L2234.17 267.097 Z" fill="#000000" fill-rule="nonzero" fill-opacity="1" /></svg>
